<svg width="360" height="360" viewBox="0 0 360 360" fill="none" xmlns="http://www.w3.org/2000/svg">
<g clip-path="url(#clip0)">
<path d="M-9.76585e-06 85.02L4.61999 80.75C6.95434 82.1996 9.40629 83.4507 11.95 84.49L10.75 94.73L13.41 95.6L18.46 86.6C21.08 87.25 23.8 87.68 26.58 87.88L28.6 98H31.4L33.42 87.88C36.16 87.68 38.88 87.26 41.54 86.6L46.59 95.59L49.25 94.73L48.05 84.49C50.6 83.46 53.05 82.2 55.38 80.75L62.96 87.75L65.22 86.1L60.92 76.72C63.0143 74.9546 64.9546 73.0143 66.72 70.92L76.1 75.22L77.75 72.96L70.75 65.38C72.1996 63.0456 73.4507 60.5937 74.49 58.05L84.73 59.25L85.6 56.59L76.6 51.54C77.2577 48.8748 77.686 46.1582 77.88 43.42L88 41.4V38.6L77.88 36.58C77.68 33.84 77.26 31.12 76.6 28.46L85.59 23.41L84.73 20.75L74.49 21.95C73.46 19.4 72.2 16.95 70.75 14.62L77.75 7.04L76.1 4.78L66.72 9.08C64.9546 6.98571 63.0143 5.04538 60.92 3.28L62.42 0H64.58L63.33 2.72C64.7188 3.9625 66.0375 5.2812 67.28 6.67L76.78 2.31L80.3 7.16L73.22 14.84C74.16 16.44 75.01 18.11 75.76 19.82L86.14 18.61L87.99 24.31L78.88 29.43C79.27 31.23 79.56 33.08 79.75 34.95L90 37V43L79.75 45.05C79.5633 46.9048 79.2729 48.7477 78.88 50.57L87.99 55.69L86.14 61.39L75.76 60.18C75.01 61.88 74.16 63.55 73.22 65.16L80.3 72.84L76.78 77.69L67.28 73.33C66.0375 74.7188 64.7188 76.0375 63.33 77.28L67.69 86.78L62.84 90.3L55.16 83.22C53.56 84.16 51.89 85.01 50.18 85.76L51.39 96.14L45.69 97.99L40.57 88.88C38.77 89.27 36.92 89.56 35.05 89.75L33 100H27L24.95 89.75C23.0952 89.5633 21.2523 89.2729 19.43 88.88L14.31 97.99L8.60999 96.14L9.81999 85.76C8.11999 85.01 6.44999 84.16 4.83999 83.22L-9.76585e-06 87.68V85.02V85.02ZM-9.76585e-06 52.7V27.3L8.37999 32.14C6.53028 37.2168 6.53028 42.7832 8.37999 47.86L-9.76585e-06 52.7ZM-9.76585e-06 13.54C6.6685 5.96623 15.9585 1.19974 26 0.2V17.35C20.6769 18.2868 15.8544 21.0698 12.38 25.21L-9.76585e-06 18.06V13.54V13.54ZM-9.76585e-06 66.46V61.94L12.38 54.79C15.8544 58.9302 20.6769 61.7132 26 62.65V79.8C15.9585 78.8003 6.6685 74.0338 -9.76585e-06 66.46V66.46ZM34 79.8V62.65C39.323 61.7132 44.1456 58.9302 47.62 54.79L62.47 63.37C59.1605 67.9704 54.9105 71.8144 50.0021 74.6471C45.0937 77.4797 39.639 79.2362 34 79.8V79.8ZM66.48 56.44L51.62 47.86C53.4697 42.7832 53.4697 37.2168 51.62 32.14L66.48 23.56C68.8088 28.7274 70.0089 34.3321 70 40C70.0076 45.6678 68.8077 51.2722 66.48 56.44V56.44ZM62.47 16.64L47.62 25.2C44.144 21.0635 39.3217 18.2841 34 17.35V0.2C39.639 0.763785 45.0937 2.52027 50.0021 5.35291C54.9105 8.18556 59.1605 12.0296 62.47 16.63V16.64V16.64ZM-9.76585e-06 50.38L5.97999 46.93C4.67043 42.396 4.67043 37.584 5.97999 33.05L-9.76585e-06 29.6V50.38ZM0.49999 16.03L11.98 22.66C15.25 19.26 19.42 16.86 24 15.72V2.47C14.7622 3.94325 6.3937 8.77562 0.49999 16.04V16.03V16.03ZM0.49999 63.95C6.39204 71.2181 14.7607 76.0542 24 77.53V64.28C19.4169 63.1463 15.249 60.7364 11.98 57.33L0.49999 63.96V63.95ZM36 77.53C45.2378 76.0567 53.6063 71.2244 59.5 63.96L48.02 57.33C44.7509 60.7364 40.5831 63.1463 36 64.28V77.53ZM65.5 53.57C68.8492 44.8333 68.8492 35.1667 65.5 26.43L54.02 33.06C55.3296 37.594 55.3296 42.406 54.02 46.94L65.51 53.57H65.5V53.57ZM59.5 16.04C53.6063 8.77562 45.2378 3.94325 36 2.47V15.72C40.66 16.87 44.8 19.32 48.02 22.67L59.5 16.04V16.04ZM30 54C28.1615 54 26.341 53.6379 24.6424 52.9343C22.9439 52.2307 21.4005 51.1995 20.1005 49.8995C18.8005 48.5995 17.7692 47.0561 17.0657 45.3576C16.3621 43.659 16 41.8385 16 40C16 38.1615 16.3621 36.341 17.0657 34.6424C17.7692 32.9439 18.8005 31.4005 20.1005 30.1005C21.4005 28.8005 22.9439 27.7693 24.6424 27.0657C26.341 26.3621 28.1615 26 30 26C33.713 26 37.274 27.475 39.8995 30.1005C42.525 32.726 44 36.287 44 40C44 43.713 42.525 47.274 39.8995 49.8995C37.274 52.525 33.713 54 30 54V54ZM30 52C33.1826 52 36.2348 50.7357 38.4853 48.4853C40.7357 46.2348 42 43.1826 42 40C42 36.8174 40.7357 33.7652 38.4853 31.5147C36.2348 29.2643 33.1826 28 30 28C26.8174 28 23.7651 29.2643 21.5147 31.5147C19.2643 33.7652 18 36.8174 18 40C18 43.1826 19.2643 46.2348 21.5147 48.4853C23.7651 50.7357 26.8174 52 30 52V52ZM30 50C27.3478 50 24.8043 48.9464 22.9289 47.0711C21.0536 45.1957 20 42.6522 20 40C20 37.3478 21.0536 34.8043 22.9289 32.9289C24.8043 31.0536 27.3478 30 30 30C32.6522 30 35.1957 31.0536 37.0711 32.9289C38.9464 34.8043 40 37.3478 40 40C40 42.6522 38.9464 45.1957 37.0711 47.0711C35.1957 48.9464 32.6522 50 30 50ZM30 48C32.1217 48 34.1566 47.1571 35.6568 45.6569C37.1571 44.1566 38 42.1217 38 40C38 37.8783 37.1571 35.8434 35.6568 34.3431C34.1566 32.8429 32.1217 32 30 32C27.8783 32 25.8434 32.8429 24.3431 34.3431C22.8428 35.8434 22 37.8783 22 40C22 42.1217 22.8428 44.1566 24.3431 45.6569C25.8434 47.1571 27.8783 48 30 48V48ZM107.47 93.17L105.85 87.2L111.52 85.14L114.13 90.78C115.22 90.53 116.33 90.34 117.46 90.2L117.98 84H124.02L124.54 90.2C125.67 90.34 126.78 90.53 127.87 90.78L130.47 85.14L136.15 87.2L134.53 93.17C135.55 93.68 136.53 94.24 137.48 94.86L141.83 90.48L146.45 94.36L142.92 99.36C143.72 100.2 144.45 101.07 145.15 101.98L150.67 99.38L153.69 104.61L148.71 108.07C149.17 109.13 149.57 110.21 149.91 111.32L155.93 110.78L156.98 116.72L151.14 118.26C151.21 119.42 151.21 120.58 151.14 121.74L156.98 123.28L155.93 129.22L149.91 128.68C149.57 129.78 149.17 130.88 148.71 131.93L153.69 135.39L150.67 140.61L145.15 138.01C144.45 138.93 143.71 139.81 142.92 140.63L146.45 145.63L141.83 149.52L137.48 145.14C136.529 145.758 135.544 146.323 134.53 146.83L136.15 152.8L130.48 154.86L127.87 149.22C126.78 149.47 125.67 149.66 124.54 149.8L124.02 156H117.98L117.46 149.8C116.34 149.669 115.228 149.475 114.13 149.22L111.53 154.86L105.85 152.8L107.47 146.83C106.46 146.33 105.47 145.76 104.52 145.14L100.17 149.52L95.55 145.64L99.08 140.64C98.2909 139.807 97.5465 138.932 96.85 138.02L91.33 140.62L88.31 135.39L93.29 131.93C92.827 130.871 92.4263 129.786 92.09 128.68L86.07 129.22L85.02 123.28L90.86 121.74C90.7933 120.581 90.7933 119.419 90.86 118.26L85.02 116.72L86.07 110.78L92.09 111.32C92.43 110.22 92.83 109.12 93.29 108.07L88.31 104.61L91.33 99.39L96.85 101.99C97.55 101.07 98.29 100.19 99.08 99.37L95.55 94.37L100.17 90.48L104.52 94.86C105.471 94.2417 106.456 93.6775 107.47 93.17V93.17ZM122.67 92.05L122.17 86H119.83L119.33 92.05C117.15 92.18 115.03 92.55 113.01 93.15L110.47 87.65L108.27 88.45L109.87 94.3C107.9 95.153 106.034 96.2301 104.31 97.51L100.04 93.21L98.25 94.71L101.75 99.66C100.194 101.138 98.8112 102.788 97.63 104.58L92.13 101.99L90.97 104.01L95.95 107.47C94.9863 109.388 94.248 111.412 93.75 113.5L87.72 112.95L87.32 115.25L93.18 116.79C92.9365 118.923 92.9365 121.077 93.18 123.21L87.31 124.76L87.71 127.06L93.76 126.5C94.258 128.588 94.9963 130.612 95.96 132.53L90.96 136L92.13 138.02L97.62 135.43C98.8012 137.222 100.184 138.872 101.74 140.35L98.24 145.31L100.03 146.81L104.3 142.5C106.024 143.78 107.89 144.857 109.86 145.71L108.26 151.56L110.46 152.36L113 146.86C115.02 147.46 117.14 147.83 119.32 147.96L119.82 154.01H122.16L122.66 147.96C124.84 147.83 126.96 147.46 128.98 146.86L131.52 152.36L133.72 151.56L132.12 145.71C134.09 144.857 135.956 143.78 137.68 142.5L141.95 146.8L143.74 145.3L140.24 140.35C141.796 138.872 143.179 137.222 144.36 135.43L149.86 138.02L151.02 136L146.04 132.54C147.004 130.622 147.742 128.598 148.24 126.51L154.27 127.06L154.67 124.76L148.81 123.22C149.054 121.087 149.054 118.933 148.81 116.8L154.68 115.25L154.28 112.95L148.23 113.51C147.732 111.422 146.994 109.398 146.03 107.48L151.02 104.02L149.85 102L144.36 104.59C143.179 102.798 141.796 101.148 140.24 99.67L143.74 94.71L141.95 93.21L137.68 97.52C135.956 96.2401 134.09 95.163 132.12 94.31L133.72 88.46L131.52 87.66L128.98 93.16C126.96 92.56 124.84 92.19 122.66 92.06L122.67 92.05V92.05ZM121 128C118.878 128 116.843 127.157 115.343 125.657C113.843 124.157 113 122.122 113 120C113 117.878 113.843 115.843 115.343 114.343C116.843 112.843 118.878 112 121 112C123.122 112 125.157 112.843 126.657 114.343C128.157 115.843 129 117.878 129 120C129 122.122 128.157 124.157 126.657 125.657C125.157 127.157 123.122 128 121 128ZM121 126C122.591 126 124.117 125.368 125.243 124.243C126.368 123.117 127 121.591 127 120C127 118.409 126.368 116.883 125.243 115.757C124.117 114.632 122.591 114 121 114C119.409 114 117.883 114.632 116.757 115.757C115.632 116.883 115 118.409 115 120C115 121.591 115.632 123.117 116.757 124.243C117.883 125.368 119.409 126 121 126V126ZM121 108C119.674 108 118.402 107.473 117.464 106.536C116.527 105.598 116 104.326 116 103C116 101.674 116.527 100.402 117.464 99.4645C118.402 98.5268 119.674 98 121 98C122.326 98 123.598 98.5268 124.536 99.4645C125.473 100.402 126 101.674 126 103C126 104.326 125.473 105.598 124.536 106.536C123.598 107.473 122.326 108 121 108V108ZM129.49 111.51C128.535 110.588 127.986 109.325 127.962 107.998C127.939 106.672 128.443 105.39 129.365 104.435C130.287 103.48 131.55 102.931 132.877 102.907C134.203 102.884 135.485 103.388 136.44 104.31C136.913 104.766 137.291 105.311 137.553 105.914C137.815 106.516 137.956 107.165 137.968 107.822C137.979 108.479 137.861 109.131 137.621 109.743C137.38 110.354 137.021 110.912 136.565 111.385C136.109 111.858 135.564 112.236 134.961 112.498C134.359 112.76 133.71 112.901 133.053 112.913C132.396 112.924 131.744 112.806 131.132 112.566C130.521 112.325 129.963 111.966 129.49 111.51V111.51ZM133 120C133 118.674 133.527 117.402 134.464 116.464C135.402 115.527 136.674 115 138 115C139.326 115 140.598 115.527 141.536 116.464C142.473 117.402 143 118.674 143 120C143 121.326 142.473 122.598 141.536 123.536C140.598 124.473 139.326 125 138 125C136.674 125 135.402 124.473 134.464 123.536C133.527 122.598 133 121.326 133 120V120ZM129.49 128.49C130.412 127.535 131.675 126.986 133.002 126.962C134.328 126.939 135.61 127.443 136.565 128.365C137.52 129.287 138.069 130.55 138.093 131.877C138.116 133.203 137.612 134.485 136.69 135.44C136.234 135.913 135.689 136.291 135.086 136.553C134.484 136.815 133.835 136.956 133.178 136.968C131.852 136.991 130.57 136.487 129.615 135.565C128.66 134.643 128.111 133.38 128.087 132.053C128.064 130.727 128.568 129.445 129.49 128.49ZM121 132C122.326 132 123.598 132.527 124.536 133.464C125.473 134.402 126 135.674 126 137C126 138.326 125.473 139.598 124.536 140.536C123.598 141.473 122.326 142 121 142C119.674 142 118.402 141.473 117.464 140.536C116.527 139.598 116 138.326 116 137C116 135.674 116.527 134.402 117.464 133.464C118.402 132.527 119.674 132 121 132V132ZM112.51 128.49C113.465 129.412 114.014 130.675 114.038 132.002C114.061 133.328 113.557 134.61 112.635 135.565C112.179 136.038 111.634 136.416 111.031 136.678C110.429 136.94 109.78 137.081 109.123 137.093C107.797 137.116 106.515 136.612 105.56 135.69C104.605 134.768 104.056 133.505 104.032 132.178C104.009 130.852 104.513 129.57 105.435 128.615C106.357 127.66 107.62 127.111 108.947 127.087C110.273 127.064 111.555 127.568 112.51 128.49V128.49ZM109 120C109 121.326 108.473 122.598 107.536 123.536C106.598 124.473 105.326 125 104 125C102.674 125 101.402 124.473 100.464 123.536C99.5268 122.598 99 121.326 99 120C99 118.674 99.5268 117.402 100.464 116.464C101.402 115.527 102.674 115 104 115C105.326 115 106.598 115.527 107.536 116.464C108.473 117.402 109 118.674 109 120ZM112.51 111.51C112.054 111.983 111.509 112.361 110.906 112.623C110.304 112.885 109.655 113.026 108.998 113.038C108.341 113.049 107.689 112.931 107.077 112.691C106.466 112.45 105.908 112.091 105.435 111.635C104.962 111.179 104.584 110.634 104.322 110.031C104.06 109.429 103.919 108.78 103.907 108.123C103.896 107.466 104.014 106.814 104.254 106.202C104.495 105.591 104.854 105.033 105.31 104.56C106.232 103.605 107.495 103.056 108.822 103.032C110.148 103.009 111.43 103.513 112.385 104.435C113.34 105.357 113.889 106.62 113.913 107.947C113.936 109.273 113.432 110.555 112.51 111.51V111.51ZM121 106C121.796 106 122.559 105.684 123.121 105.121C123.684 104.559 124 103.796 124 103C124 102.204 123.684 101.441 123.121 100.879C122.559 100.316 121.796 100 121 100C120.204 100 119.441 100.316 118.879 100.879C118.316 101.441 118 102.204 118 103C118 103.796 118.316 104.559 118.879 105.121C119.441 105.684 120.204 106 121 106V106ZM130.9 110.1C131.442 110.682 132.194 111.025 132.989 111.053C133.784 111.081 134.558 110.792 135.14 110.25C135.722 109.708 136.065 108.956 136.093 108.161C136.121 107.366 135.832 106.592 135.29 106.01C135.021 105.722 134.699 105.489 134.34 105.326C133.982 105.162 133.595 105.071 133.201 105.057C132.807 105.043 132.415 105.107 132.046 105.244C131.677 105.382 131.338 105.591 131.05 105.86C130.762 106.129 130.529 106.451 130.366 106.81C130.202 107.168 130.111 107.555 130.097 107.949C130.083 108.343 130.147 108.735 130.284 109.104C130.422 109.473 130.631 109.812 130.9 110.1ZM135 120C135 120.796 135.316 121.559 135.879 122.121C136.441 122.684 137.204 123 138 123C138.796 123 139.559 122.684 140.121 122.121C140.684 121.559 141 120.796 141 120C141 119.204 140.684 118.441 140.121 117.879C139.559 117.316 138.796 117 138 117C137.204 117 136.441 117.316 135.879 117.879C135.316 118.441 135 119.204 135 120ZM130.9 129.9C130.612 130.169 130.379 130.491 130.216 130.85C130.052 131.208 129.961 131.595 129.947 131.989C129.933 132.383 129.997 132.775 130.134 133.144C130.272 133.513 130.481 133.852 130.75 134.14C131.019 134.428 131.341 134.661 131.7 134.824C132.058 134.988 132.445 135.079 132.839 135.093C133.233 135.107 133.625 135.043 133.994 134.906C134.363 134.768 134.702 134.559 134.99 134.29C135.572 133.748 135.915 132.996 135.943 132.201C135.971 131.406 135.682 130.632 135.14 130.05C134.598 129.468 133.846 129.125 133.051 129.097C132.256 129.069 131.482 129.358 130.9 129.9V129.9ZM121 134C120.204 134 119.441 134.316 118.879 134.879C118.316 135.441 118 136.204 118 137C118 137.796 118.316 138.559 118.879 139.121C119.441 139.684 120.204 140 121 140C121.796 140 122.559 139.684 123.121 139.121C123.684 138.559 124 137.796 124 137C124 136.204 123.684 135.441 123.121 134.879C122.559 134.316 121.796 134 121 134V134ZM111.1 129.9C110.558 129.318 109.806 128.975 109.011 128.947C108.216 128.919 107.442 129.208 106.86 129.75C106.278 130.292 105.935 131.044 105.907 131.839C105.879 132.634 106.168 133.408 106.71 133.99C107.252 134.572 108.004 134.915 108.799 134.943C109.594 134.971 110.368 134.682 110.95 134.14C111.532 133.598 111.875 132.846 111.903 132.051C111.931 131.256 111.642 130.482 111.1 129.9V129.9ZM107 120C107 119.204 106.684 118.441 106.121 117.879C105.559 117.316 104.796 117 104 117C103.204 117 102.441 117.316 101.879 117.879C101.316 118.441 101 119.204 101 120C101 120.796 101.316 121.559 101.879 122.121C102.441 122.684 103.204 123 104 123C104.796 123 105.559 122.684 106.121 122.121C106.684 121.559 107 120.796 107 120ZM111.1 110.1C111.388 109.831 111.621 109.509 111.784 109.15C111.948 108.792 112.039 108.405 112.053 108.011C112.067 107.617 112.003 107.225 111.865 106.856C111.728 106.487 111.519 106.148 111.25 105.86C110.981 105.572 110.659 105.339 110.3 105.176C109.942 105.012 109.555 104.921 109.161 104.907C108.767 104.893 108.375 104.957 108.006 105.094C107.637 105.232 107.298 105.441 107.01 105.71C106.428 106.252 106.085 107.004 106.057 107.799C106.029 108.594 106.318 109.368 106.86 109.95C107.402 110.532 108.154 110.875 108.949 110.903C109.744 110.931 110.518 110.642 111.1 110.1V110.1ZM240.52 103.15V103.16C241.39 103.23 242.26 103.33 243.12 103.46L244.62 99.55L246.56 95.91L250.45 96.88V101.01L249.95 105.14C250.78 105.42 251.59 105.73 252.39 106.07L254.81 102.64L257.57 99.57L261.11 101.45L260.11 105.45L258.62 109.34C259.35 109.81 260.07 110.31 260.77 110.83L263.96 108.07L267.38 105.77L270.35 108.44L268.42 112.09L266.04 115.49C266.64 116.13 267.24 116.79 267.8 117.48L271.48 115.54L275.33 114.06L277.62 117.34L274.92 120.45L271.8 123.27C272.23 124.03 272.64 124.8 273.02 125.59L277.06 124.59L281.16 124.09L282.59 127.82L279.22 130.19L275.52 132.17C275.75 133.01 275.96 133.85 276.14 134.71L280.31 134.72L284.41 135.22L284.89 139.19L281.04 140.67L276.98 141.69C277.01 142.56 277.01 143.44 276.98 144.31L281.04 145.33L284.89 146.81L284.41 150.78L280.31 151.29H276.14C275.96 152.15 275.75 153 275.51 153.83L279.21 155.81L282.59 158.18L281.16 161.91L277.06 161.41L273.02 160.41C272.64 161.2 272.23 161.97 271.8 162.73L274.93 165.55L277.63 168.66L275.33 171.94L271.48 170.46L267.8 168.51C267.238 169.198 266.65 169.865 266.04 170.51L268.42 173.92L270.35 177.56L267.38 180.23L263.96 177.93L260.77 175.17C260.07 175.687 259.353 176.18 258.62 176.65L260.1 180.55L261.1 184.55L257.57 186.43L254.81 183.36L252.39 179.93C251.59 180.26 250.78 180.58 249.94 180.86L250.44 184.99V189.12L246.56 190.09L244.62 186.44L243.12 182.54C242.26 182.67 241.39 182.77 240.52 182.85L240 187L239 191H235L234 187L233.48 182.84C232.61 182.77 231.743 182.67 230.88 182.54L229.38 186.45L227.44 190.09L223.55 189.12V184.99L224.05 180.86C223.22 180.58 222.41 180.27 221.61 179.93L219.19 183.36L216.43 186.43L212.89 184.55L213.89 180.55L215.38 176.66C214.64 176.19 213.93 175.69 213.23 175.17L210.04 177.93L206.62 180.23L203.65 177.56L205.58 173.91L207.96 170.51C207.35 169.86 206.76 169.2 206.2 168.52L202.52 170.46L198.67 171.94L196.38 168.66L199.08 165.55L202.2 162.73C201.77 161.97 201.36 161.2 200.98 160.41L196.94 161.41L192.84 161.91L191.41 158.18L194.78 155.81L198.48 153.83C198.25 152.99 198.04 152.15 197.86 151.29L193.69 151.28L189.59 150.78L189.11 146.81L192.96 145.33L197.02 144.31C196.99 143.44 196.99 142.56 197.02 141.69L192.96 140.67L189.11 139.19L189.59 135.22L193.69 134.71H197.86C198.04 133.85 198.25 133 198.49 132.17L194.79 130.19L191.41 127.82L192.84 124.09L196.94 124.59L200.98 125.59C201.36 124.8 201.77 124.03 202.2 123.27L199.07 120.45L196.37 117.34L198.67 114.06L202.52 115.54L206.2 117.49C206.762 116.802 207.35 116.135 207.96 115.49L205.58 112.08L203.65 108.44L206.62 105.77L210.04 108.07L213.23 110.83C213.93 110.31 214.64 109.81 215.38 109.35L213.9 105.45L212.9 101.45L216.43 99.57L219.19 102.64L221.61 106.07C222.41 105.74 223.22 105.42 224.06 105.14L223.56 101.01V96.88L227.44 95.91L229.38 99.56L230.88 103.46C231.74 103.33 232.61 103.23 233.48 103.15L234 99L235 95H239L240 99L240.52 103.15V103.15ZM226.22 106.55C224.39 107.09 222.62 107.76 220.92 108.55L217.42 103.58L216.04 102.05L215.16 102.52L215.66 104.52L217.82 110.19C216.189 111.146 214.631 112.223 213.16 113.41L208.55 109.41L206.84 108.26L206.09 108.93L207.06 110.75L210.53 115.73C209.162 117.06 207.895 118.491 206.74 120.01L201.37 117.17L199.45 116.43L198.88 117.25L200.23 118.81L204.75 122.9C203.747 124.499 202.864 126.17 202.11 127.9L196.22 126.45L194.18 126.2L193.82 127.14L195.51 128.32L200.87 131.19C200.283 132.987 199.832 134.825 199.52 136.69L193.44 136.7L191.4 136.95L191.28 137.95L193.2 138.68L199.1 140.18C198.962 142.061 198.962 143.949 199.1 145.83L193.2 147.32L191.28 148.06L191.4 149.05L193.44 149.3L199.52 149.31C199.83 151.17 200.29 153.01 200.87 154.81L195.51 157.68L193.81 158.86L194.18 159.8L196.22 159.55L202.12 158.09C202.871 159.823 203.75 161.498 204.75 163.1L200.23 167.2L198.88 168.75L199.45 169.57L201.37 168.83L206.74 165.99C207.898 167.51 209.168 168.94 210.54 170.27L207.06 175.25L206.09 177.07L206.84 177.74L208.54 176.59L213.16 172.59C214.631 173.777 216.189 174.854 217.82 175.81L215.65 181.48L215.15 183.48L216.04 183.95L217.42 182.42L220.92 177.44C222.62 178.24 224.39 178.91 226.22 179.44L225.49 185.48V187.54L226.46 187.78L227.43 185.96L229.63 180.28C231.46 180.64 233.33 180.88 235.25 180.96L236 187L236.5 189H237.5L238 187L238.75 180.96C240.638 180.873 242.516 180.645 244.37 180.28L246.57 185.96L247.54 187.78L248.51 187.54V185.48L247.78 179.45C249.61 178.91 251.38 178.24 253.08 177.45L256.58 182.42L257.96 183.95L258.84 183.48L258.34 181.48L256.18 175.81C257.811 174.854 259.369 173.777 260.84 172.59L265.45 176.59L267.16 177.74L267.91 177.07L266.94 175.25L263.47 170.27C264.838 168.94 266.105 167.509 267.26 165.99L272.63 168.83L274.55 169.57L275.12 168.75L273.77 167.19L269.25 163.1C270.25 161.5 271.13 159.83 271.89 158.1L277.78 159.55L279.82 159.8L280.18 158.86L278.49 157.68L273.13 154.81C273.718 153.013 274.17 151.175 274.48 149.31L280.56 149.3L282.6 149.05L282.72 148.05L280.8 147.32L274.9 145.82C275.04 143.94 275.04 142.05 274.9 140.17L280.8 138.68L282.72 137.94L282.6 136.95L280.56 136.7L274.48 136.69C274.17 134.825 273.718 132.987 273.13 131.19L278.49 128.32L280.19 127.14L279.82 126.2L277.78 126.45L271.88 127.91C271.129 126.177 270.25 124.502 269.25 122.9L273.77 118.8L275.12 117.25L274.55 116.43L272.63 117.17L267.26 120.01C266.102 118.49 264.832 117.06 263.46 115.73L266.94 110.75L267.91 108.93L267.16 108.26L265.46 109.41L260.84 113.41C259.369 112.223 257.811 111.146 256.18 110.19L258.35 104.52L258.85 102.52L257.96 102.05L256.58 103.58L253.08 108.56C251.38 107.76 249.61 107.09 247.78 106.56L248.51 100.52V98.46L247.54 98.22L246.57 100.04L244.37 105.72C242.54 105.36 240.67 105.12 238.75 105.04L238 99L237.5 97H236.5L236 99L235.25 105.04C233.33 105.13 231.45 105.36 229.63 105.72L227.43 100.04L226.46 98.22L225.49 98.46V100.52L226.22 106.55V106.55ZM220.37 112.2C225.178 109.592 230.532 108.153 236 108V114C231.586 114.147 227.264 115.306 223.37 117.39L220.37 112.19V112.2V112.2ZM223.17 113.03L224.17 114.77C227.278 113.354 230.6 112.466 234 112.14V110.13C230.25 110.468 226.587 111.449 223.17 113.03ZM218.64 113.2L221.64 118.4C217.9 120.74 214.74 123.9 212.4 127.64L207.2 124.64C210.073 119.99 213.99 116.073 218.64 113.2V113.2ZM217.97 116.04C214.896 118.214 212.214 120.896 210.04 123.97L211.78 124.97C213.769 122.192 216.202 119.759 218.98 117.77L217.97 116.04V116.04ZM206.2 126.37H206.19L211.39 129.37C209.306 133.264 208.147 137.586 208 142H202C202.153 136.532 203.592 131.178 206.2 126.37V126.37ZM207.03 129.17C205.449 132.587 204.468 136.25 204.13 140H206.14C206.466 136.6 207.354 133.278 208.77 130.17L207.03 129.17V129.17ZM202.01 144H208.02C208.17 148.41 209.32 152.73 211.4 156.63L206.2 159.63C203.595 154.821 202.16 149.467 202.01 144V144ZM204.13 146C204.467 149.753 205.448 153.42 207.03 156.84L208.77 155.84C207.353 152.729 206.464 149.403 206.14 146H204.13V146ZM207.2 161.36L212.4 158.36C214.74 162.1 217.9 165.26 221.64 167.6L218.64 172.8C213.99 169.927 210.073 166.01 207.2 161.36ZM210.04 162.03C212.214 165.104 214.896 167.786 217.97 169.96L218.97 168.22C216.192 166.231 213.759 163.798 211.77 161.02L210.04 162.03V162.03ZM220.37 173.8V173.81L223.37 168.61C227.265 170.692 231.586 171.852 236 172V178C230.532 177.847 225.178 176.408 220.37 173.8V173.8ZM223.17 172.97C226.587 174.551 230.25 175.532 234 175.87V173.86C230.6 173.534 227.278 172.646 224.17 171.23L223.17 172.97V172.97ZM238 177.99V171.98C242.41 171.83 246.73 170.68 250.63 168.6L253.63 173.8C248.821 176.405 243.467 177.84 238 177.99ZM240 175.87C243.753 175.533 247.42 174.552 250.84 172.97L249.84 171.23C246.729 172.647 243.403 173.536 240 173.86V175.87V175.87ZM255.36 172.8L252.36 167.6C256.1 165.26 259.26 162.1 261.6 158.36L266.8 161.36C263.927 166.01 260.01 169.927 255.36 172.8V172.8ZM256.03 169.96C259.104 167.786 261.786 165.104 263.96 162.03L262.22 161.03C260.231 163.808 257.798 166.241 255.02 168.23L256.03 169.96V169.96ZM267.8 159.63H267.81L262.61 156.63C264.692 152.735 265.852 148.414 266 144H272C271.847 149.468 270.408 154.822 267.8 159.63V159.63ZM266.97 156.83C268.551 153.413 269.532 149.75 269.87 146H267.86C267.534 149.4 266.646 152.722 265.23 155.83L266.97 156.83ZM271.99 142H265.98C265.835 137.587 264.678 133.266 262.6 129.37L267.8 126.37C270.405 131.179 271.84 136.533 271.99 142V142ZM269.87 140C269.533 136.247 268.552 132.58 266.97 129.16L265.23 130.16C266.647 133.271 267.535 136.597 267.86 140H269.87ZM266.8 124.64L261.6 127.64C259.26 123.9 256.1 120.74 252.36 118.4L255.36 113.2C260.01 116.073 263.927 119.99 266.8 124.64V124.64ZM263.96 123.97C261.786 120.896 259.104 118.214 256.03 116.04L255.03 117.78C257.808 119.769 260.241 122.202 262.23 124.98L263.96 123.97V123.97ZM238 108C243.467 108.15 248.821 109.585 253.63 112.19L250.63 117.39C246.734 115.312 242.413 114.155 238 114.01V108ZM250.84 113.02C247.42 111.438 243.753 110.457 240 110.12V112.13C243.4 112.456 246.722 113.344 249.83 114.76L250.83 113.02H250.84ZM237 156C233.552 156 230.246 154.63 227.808 152.192C225.37 149.754 224 146.448 224 143C224 139.552 225.37 136.246 227.808 133.808C230.246 131.37 233.552 130 237 130C240.448 130 243.754 131.37 246.192 133.808C248.63 136.246 250 139.552 250 143C250 146.448 248.63 149.754 246.192 152.192C243.754 154.63 240.448 156 237 156V156ZM237 154C239.917 154 242.715 152.841 244.778 150.778C246.841 148.715 248 145.917 248 143C248 140.083 246.841 137.285 244.778 135.222C242.715 133.159 239.917 132 237 132C234.083 132 231.285 133.159 229.222 135.222C227.159 137.285 226 140.083 226 143C226 145.917 227.159 148.715 229.222 150.778C231.285 152.841 234.083 154 237 154ZM137.54 0H194.46L193.72 1.03C194.29 1.73 194.84 2.43 195.36 3.17L203.11 0.27L205.11 3.73L198.73 8.98C199.1 9.8 199.45 10.63 199.76 11.48L207.98 10.68L209.02 14.54L201.5 17.97C201.65 18.85 201.76 19.74 201.85 20.64L210 22V26L201.85 27.36C201.76 28.26 201.65 29.16 201.5 30.03L209.02 33.46L207.98 37.32L199.76 36.52C199.45 37.37 199.1 38.2 198.73 39.02L205.11 44.27L203.11 47.73L195.36 44.83C194.84 45.57 194.29 46.28 193.72 46.97L198.52 53.7L195.7 56.53L188.97 51.73C188.27 52.29 187.57 52.84 186.83 53.36L189.73 61.11L186.27 63.11L181.02 56.73C180.2 57.1 179.37 57.45 178.52 57.76L179.32 65.98L175.46 67.02L172.03 59.5C171.15 59.65 170.26 59.76 169.36 59.85L168 68H164L162.64 59.85C161.74 59.76 160.84 59.65 159.97 59.5L156.54 67.02L152.68 65.98L153.48 57.76C152.63 57.45 151.8 57.1 150.98 56.73L145.73 63.11L142.27 61.11L145.17 53.36C144.437 52.8401 143.723 52.2931 143.03 51.72L136.3 56.52L133.47 53.7L138.27 46.97C137.71 46.27 137.16 45.57 136.64 44.83L128.89 47.73L126.89 44.27L133.27 39.02C132.9 38.2 132.55 37.37 132.24 36.52L124.02 37.32L122.98 33.46L130.5 30.03C130.35 29.15 130.24 28.26 130.15 27.36L122 26V22L130.15 20.64C130.24 19.74 130.35 18.84 130.5 17.97L122.98 14.54L124.02 10.68L132.24 11.48C132.55 10.63 132.9 9.8 133.27 8.98L126.89 3.73L128.89 0.27L136.64 3.17C137.16 2.43 137.71 1.72 138.28 1.03L137.54 0ZM139.97 0L140.8 1.17C139.556 2.54253 138.425 4.01406 137.42 5.57L129.79 2.71L129.46 3.29L135.75 8.47C134.901 10.1154 134.189 11.8279 133.62 13.59L125.52 12.81L125.34 13.45L132.76 16.82C132.371 18.6307 132.13 20.4701 132.04 22.32L124 23.68V24.34L132.04 25.68C132.14 27.56 132.37 29.4 132.76 31.18L125.34 34.56L125.52 35.2L133.62 34.42C134.189 36.182 134.901 37.8944 135.75 39.54L129.46 44.72L129.79 45.3L137.42 42.44C138.42 44 139.56 45.47 140.8 46.84L136.07 53.47L136.54 53.94L143.17 49.21C144.543 50.4542 146.014 51.5846 147.57 52.59L144.71 60.22L145.29 60.55L150.47 54.26C152.1 55.1 153.82 55.82 155.59 56.39L154.81 64.49L155.45 64.67L158.82 57.25C160.61 57.64 162.45 57.88 164.32 57.97L165.67 66.01H166.33L167.67 57.97C169.55 57.87 171.39 57.64 173.17 57.25L176.55 64.67L177.19 64.49L176.41 56.39C178.172 55.8211 179.884 55.1087 181.53 54.26L186.71 60.55L187.29 60.22L184.43 52.59C185.99 51.59 187.46 50.45 188.83 49.21L195.46 53.94L195.93 53.47L191.2 46.84C192.444 45.4675 193.575 43.9959 194.58 42.44L202.21 45.3L202.54 44.72L196.25 39.54C197.099 37.8946 197.811 36.1821 198.38 34.42L206.48 35.2L206.66 34.56L199.24 31.19C199.63 29.4 199.87 27.56 199.96 25.69L208 24.34V23.68L199.96 22.34C199.86 20.46 199.63 18.62 199.24 16.84L206.66 13.46L206.48 12.82L198.38 13.6C197.811 11.8379 197.099 10.1254 196.25 8.48L202.54 3.3L202.21 2.72L194.58 5.58C193.58 4.02 192.44 2.55 191.2 1.18L192.03 0.01H139.97V0V0ZM137.15 27H151.3C151.89 29.8816 153.314 32.5264 155.394 34.6063C157.474 36.6862 160.118 38.1097 163 38.7V52.85C156.38 52.1607 150.198 49.2158 145.491 44.5091C140.784 39.8025 137.839 33.6204 137.15 27V27ZM149.72 0H163V9.3C160.118 9.89033 157.474 11.3138 155.394 13.3937C153.314 15.4736 151.89 18.1184 151.3 21H137.15C137.587 16.7948 138.939 12.7361 141.11 9.10846C143.282 5.48081 146.22 2.37201 149.72 0V0ZM169 52.85V38.7C171.882 38.1097 174.526 36.6862 176.606 34.6063C178.686 32.5264 180.11 29.8816 180.7 27H194.85C194.161 33.6204 191.216 39.8025 186.509 44.5091C181.802 49.2158 175.62 52.1607 169 52.85V52.85ZM182.28 0C185.78 2.37201 188.718 5.48081 190.89 9.10846C193.061 12.7361 194.413 16.7948 194.85 21H180.7C180.11 18.1184 178.686 15.4736 176.606 13.3937C174.526 11.3138 171.882 9.89033 169 9.3V0H182.28ZM139.46 29C140.469 34.3395 143.064 39.2509 146.907 43.0933C150.749 46.9357 155.66 49.5308 161 50.54V40.25C158.351 39.4315 155.942 37.979 153.981 36.0186C152.021 34.0581 150.568 31.6489 149.75 29H139.46ZM153.62 0C149.972 1.88417 146.801 4.57427 144.348 7.8663C141.894 11.1583 140.223 14.9658 139.46 19H149.75C150.568 16.3511 152.021 13.9419 153.981 11.9814C155.942 10.021 158.351 8.56849 161 7.75V0H153.62ZM171 50.54C176.339 49.5308 181.251 46.9357 185.093 43.0933C188.936 39.2509 191.531 34.3395 192.54 29H182.25C181.431 31.6489 179.979 34.0581 178.019 36.0186C176.058 37.979 173.649 39.4315 171 40.25V50.54ZM178.38 0H171V7.75C173.649 8.56849 176.058 10.021 178.019 11.9814C179.979 13.9419 181.431 16.3511 182.25 19H192.54C191.777 14.9658 190.106 11.1583 187.652 7.8663C185.199 4.57427 182.028 1.88417 178.38 0V0ZM166 34C163.348 34 160.804 32.9464 158.929 31.0711C157.054 29.1957 156 26.6522 156 24C156 21.3478 157.054 18.8043 158.929 16.9289C160.804 15.0536 163.348 14 166 14C168.652 14 171.196 15.0536 173.071 16.9289C174.946 18.8043 176 21.3478 176 24C176 26.6522 174.946 29.1957 173.071 31.0711C171.196 32.9464 168.652 34 166 34ZM166 32C168.122 32 170.157 31.1571 171.657 29.6569C173.157 28.1566 174 26.1217 174 24C174 21.8783 173.157 19.8434 171.657 18.3431C170.157 16.8429 168.122 16 166 16C163.878 16 161.843 16.8429 160.343 18.3431C158.843 19.8434 158 21.8783 158 24C158 26.1217 158.843 28.1566 160.343 29.6569C161.843 31.1571 163.878 32 166 32ZM126.49 208.15L115.82 200.2L121.82 189.8L134.05 195.07C136.489 192.894 139.348 191.24 142.45 190.21L144 177H156L157.55 190.21C160.652 191.24 163.511 192.894 165.95 195.07L178.18 189.8L184.18 200.2L173.51 208.15C174.17 211.35 174.17 214.65 173.51 217.85L184.18 225.8L178.18 236.2L165.95 230.93C163.511 233.106 160.652 234.76 157.55 235.79L156 249H144L142.45 235.79C139.348 234.76 136.489 233.106 134.05 230.93L121.82 236.2L115.82 225.8L126.49 217.85C125.833 214.65 125.833 211.35 126.49 208.15V208.15ZM155.74 191.75L154.24 179H145.76L144.26 191.76C140.51 192.76 137.16 194.75 134.47 197.41L122.67 192.33L118.44 199.67L128.74 207.35C127.76 211.05 127.76 214.95 128.74 218.65L118.44 226.33L122.67 233.67L134.47 228.59C137.191 231.292 140.568 233.239 144.27 234.24L145.77 247H154.24L155.74 234.24C159.49 233.24 162.84 231.25 165.53 228.59L177.33 233.67L181.56 226.33L171.26 218.65C172.24 214.95 172.24 211.05 171.26 207.35L181.56 199.67L177.33 192.33L165.53 197.41C162.812 194.704 159.434 192.756 155.73 191.76L155.74 191.75V191.75ZM150 225C146.817 225 143.765 223.736 141.515 221.485C139.264 219.235 138 216.183 138 213C138 209.817 139.264 206.765 141.515 204.515C143.765 202.264 146.817 201 150 201C153.183 201 156.235 202.264 158.485 204.515C160.736 206.765 162 209.817 162 213C162 216.183 160.736 219.235 158.485 221.485C156.235 223.736 153.183 225 150 225ZM150 223C152.652 223 155.196 221.946 157.071 220.071C158.946 218.196 160 215.652 160 213C160 210.348 158.946 207.804 157.071 205.929C155.196 204.054 152.652 203 150 203C147.348 203 144.804 204.054 142.929 205.929C141.054 207.804 140 210.348 140 213C140 215.652 141.054 218.196 142.929 220.071C144.804 221.946 147.348 223 150 223ZM153.53 290.72L157.79 290.79L158.3 292.72L154.65 294.91C154.76 295.54 154.85 296.18 154.9 296.83L159 298V300L154.9 301.17C154.85 301.82 154.76 302.46 154.65 303.09L158.3 305.29L157.79 307.21L153.53 307.28C153.31 307.89 153.06 308.49 152.79 309.08L155.75 312.13L154.75 313.87L150.62 312.83C150.247 313.359 149.854 313.873 149.44 314.37L151.51 318.09L150.09 319.51L146.37 317.44C145.87 317.85 145.36 318.24 144.83 318.62L145.87 322.75L144.13 323.75L141.08 320.79C140.49 321.06 139.89 321.31 139.28 321.53L139.21 325.79L137.28 326.3L135.09 322.65C134.46 322.76 133.82 322.85 133.17 322.9L132 327H130L128.83 322.9C128.18 322.85 127.54 322.76 126.91 322.65L124.71 326.3L122.79 325.79L122.72 321.53C122.11 321.31 121.51 321.06 120.92 320.79L117.87 323.75L116.13 322.75L117.17 318.62C116.641 318.247 116.127 317.854 115.63 317.44L111.91 319.51L110.49 318.09L112.56 314.37C112.15 313.87 111.76 313.36 111.38 312.83L107.25 313.87L106.25 312.13L109.21 309.08C108.94 308.49 108.69 307.89 108.47 307.28L104.21 307.21L103.7 305.28L107.35 303.09C107.24 302.46 107.15 301.82 107.1 301.17L103 300V298L107.1 296.83C107.15 296.18 107.24 295.54 107.35 294.91L103.7 292.71L104.21 290.79L108.47 290.72C108.69 290.11 108.94 289.51 109.21 288.92L106.25 285.87L107.25 284.13L111.38 285.17C111.76 284.64 112.15 284.13 112.56 283.63L110.49 279.91L111.91 278.49L115.63 280.56C116.13 280.15 116.64 279.76 117.17 279.38L116.13 275.25L117.87 274.25L120.92 277.21C121.51 276.94 122.11 276.69 122.72 276.47L122.79 272.21L124.72 271.7L126.91 275.35C127.54 275.24 128.18 275.15 128.83 275.1L130 271H132L133.17 275.1C133.82 275.15 134.46 275.24 135.09 275.35L137.29 271.7L139.21 272.21L139.28 276.47C139.89 276.69 140.49 276.94 141.08 277.21L144.13 274.25L145.87 275.25L144.83 279.38C145.36 279.76 145.87 280.15 146.37 280.56L150.09 278.49L151.51 279.91L149.44 283.63C149.85 284.13 150.24 284.64 150.62 285.17L154.75 284.13L155.75 285.87L152.79 288.92C153.06 289.51 153.31 290.11 153.53 290.72V290.72ZM109 299C109 304.835 111.318 310.431 115.444 314.556C119.569 318.682 125.165 321 131 321C136.835 321 142.431 318.682 146.556 314.556C150.682 310.431 153 304.835 153 299C153 293.165 150.682 287.569 146.556 283.444C142.431 279.318 136.835 277 131 277C125.165 277 119.569 279.318 115.444 283.444C111.318 287.569 109 293.165 109 299V299ZM136.11 288.14L133.11 293.36C131.753 292.851 130.257 292.851 128.9 293.36L125.89 288.14C127.488 287.384 129.233 286.992 131 286.992C132.767 286.992 134.512 287.384 136.11 288.14V288.14ZM137.85 289.14C139.3 290.15 140.509 291.468 141.391 293C142.272 294.531 142.805 296.239 142.95 298H136.94C136.701 296.573 135.955 295.281 134.84 294.36L137.84 289.14H137.85ZM124.15 289.14L127.17 294.36C126.055 295.281 125.309 296.573 125.07 298H119.04C119.186 296.238 119.72 294.53 120.604 292.998C121.487 291.467 122.698 290.149 124.15 289.14ZM119.05 300H125.06C125.299 301.427 126.045 302.719 127.16 303.64L124.16 308.86C122.706 307.852 121.493 306.535 120.608 305.003C119.723 303.471 119.188 301.763 119.04 300H119.05ZM125.89 309.86L128.89 304.64C130.247 305.149 131.743 305.149 133.1 304.64L136.11 309.86C134.512 310.616 132.767 311.008 131 311.008C129.233 311.008 127.488 310.616 125.89 309.86V309.86ZM137.85 308.86L134.83 303.64C135.945 302.719 136.691 301.427 136.93 300H142.96C142.814 301.762 142.28 303.47 141.396 305.002C140.513 306.533 139.302 307.851 137.85 308.86V308.86ZM133.17 289.24C131.741 288.924 130.259 288.924 128.83 289.24L129.88 291.06C130.62 290.96 131.38 290.96 132.12 291.06L133.17 289.24V289.24ZM138.37 292.24L137.32 294.06C137.78 294.65 138.16 295.3 138.44 296H140.54C140.101 294.603 139.36 293.319 138.37 292.24V292.24ZM123.63 292.24C122.64 293.319 121.899 294.603 121.46 296H123.56C123.84 295.3 124.22 294.65 124.68 294.06L123.63 292.24ZM121.46 302C121.899 303.397 122.64 304.681 123.63 305.76L124.68 303.94C124.218 303.349 123.841 302.696 123.56 302H121.46ZM128.83 308.76C130.26 309.08 131.74 309.08 133.17 308.76L132.12 306.94C131.38 307.04 130.62 307.04 129.88 306.94L128.83 308.76V308.76ZM138.37 305.76C139.36 304.681 140.101 303.397 140.54 302H138.44C138.16 302.7 137.78 303.35 137.32 303.94L138.37 305.76ZM127 299C127 297.939 127.421 296.922 128.172 296.172C128.922 295.421 129.939 295 131 295C132.061 295 133.078 295.421 133.828 296.172C134.579 296.922 135 297.939 135 299C135 300.061 134.579 301.078 133.828 301.828C133.078 302.579 132.061 303 131 303C129.939 303 128.922 302.579 128.172 301.828C127.421 301.078 127 300.061 127 299ZM129 299C129 299.53 129.211 300.039 129.586 300.414C129.961 300.789 130.47 301 131 301C131.53 301 132.039 300.789 132.414 300.414C132.789 300.039 133 299.53 133 299C133 298.47 132.789 297.961 132.414 297.586C132.039 297.211 131.53 297 131 297C130.47 297 129.961 297.211 129.586 297.586C129.211 297.961 129 298.47 129 299ZM144 299C144 297.939 144.421 296.922 145.172 296.172C145.922 295.421 146.939 295 148 295C149.061 295 150.078 295.421 150.828 296.172C151.579 296.922 152 297.939 152 299C152 300.061 151.579 301.078 150.828 301.828C150.078 302.579 149.061 303 148 303C146.939 303 145.922 302.579 145.172 301.828C144.421 301.078 144 300.061 144 299ZM137.5 310.26C137.955 309.997 138.457 309.827 138.978 309.758C139.499 309.69 140.028 309.725 140.536 309.861C141.043 309.997 141.519 310.231 141.936 310.551C142.353 310.871 142.702 311.27 142.965 311.725C143.228 312.18 143.398 312.682 143.467 313.203C143.535 313.724 143.5 314.253 143.364 314.761C143.228 315.268 142.994 315.744 142.674 316.161C142.354 316.578 141.955 316.927 141.5 317.19C140.581 317.72 139.489 317.864 138.464 317.589C137.439 317.315 136.565 316.644 136.035 315.725C135.505 314.806 135.361 313.714 135.636 312.689C135.91 311.664 136.581 310.79 137.5 310.26ZM124.5 310.26C124.955 310.523 125.354 310.872 125.674 311.289C125.994 311.706 126.228 312.182 126.364 312.689C126.5 313.197 126.535 313.726 126.467 314.247C126.398 314.768 126.228 315.27 125.965 315.725C125.702 316.18 125.353 316.579 124.936 316.899C124.519 317.219 124.043 317.453 123.536 317.589C123.028 317.725 122.499 317.76 121.978 317.692C121.457 317.623 120.955 317.453 120.5 317.19C119.581 316.66 118.91 315.786 118.636 314.761C118.361 313.736 118.505 312.644 119.035 311.725C119.565 310.806 120.439 310.135 121.464 309.861C122.489 309.586 123.581 309.73 124.5 310.26V310.26ZM118 299C118 300.061 117.579 301.078 116.828 301.828C116.078 302.579 115.061 303 114 303C112.939 303 111.922 302.579 111.172 301.828C110.421 301.078 110 300.061 110 299C110 297.939 110.421 296.922 111.172 296.172C111.922 295.421 112.939 295 114 295C115.061 295 116.078 295.421 116.828 296.172C117.579 296.922 118 297.939 118 299ZM124.5 287.74C123.581 288.27 122.489 288.414 121.464 288.139C120.439 287.865 119.565 287.194 119.035 286.275C118.505 285.356 118.361 284.264 118.636 283.239C118.91 282.214 119.581 281.34 120.5 280.81C120.955 280.547 121.457 280.377 121.978 280.308C122.499 280.24 123.028 280.275 123.536 280.411C124.043 280.547 124.519 280.781 124.936 281.101C125.353 281.421 125.702 281.82 125.965 282.275C126.228 282.73 126.398 283.232 126.467 283.753C126.535 284.274 126.5 284.803 126.364 285.311C126.228 285.818 125.994 286.294 125.674 286.711C125.354 287.128 124.955 287.477 124.5 287.74ZM137.5 287.74C137.045 287.477 136.646 287.128 136.326 286.711C136.006 286.294 135.772 285.818 135.636 285.311C135.5 284.803 135.465 284.274 135.533 283.753C135.602 283.232 135.772 282.73 136.035 282.275C136.298 281.82 136.647 281.421 137.064 281.101C137.481 280.781 137.957 280.547 138.464 280.411C138.972 280.275 139.501 280.24 140.022 280.308C140.543 280.377 141.045 280.547 141.5 280.81C142.419 281.34 143.09 282.214 143.364 283.239C143.639 284.264 143.495 285.356 142.965 286.275C142.435 287.194 141.561 287.865 140.536 288.139C139.511 288.414 138.419 288.27 137.5 287.74V287.74ZM146 299C146 299.53 146.211 300.039 146.586 300.414C146.961 300.789 147.47 301 148 301C148.53 301 149.039 300.789 149.414 300.414C149.789 300.039 150 299.53 150 299C150 298.47 149.789 297.961 149.414 297.586C149.039 297.211 148.53 297 148 297C147.47 297 146.961 297.211 146.586 297.586C146.211 297.961 146 298.47 146 299ZM138.5 311.99C138.017 312.21 137.642 312.613 137.456 313.11C137.27 313.607 137.29 314.157 137.51 314.64C137.73 315.123 138.133 315.498 138.63 315.684C139.127 315.869 139.677 315.85 140.16 315.63C140.399 315.521 140.614 315.366 140.793 315.174C140.972 314.982 141.112 314.756 141.204 314.51C141.296 314.264 141.338 314.002 141.329 313.74C141.32 313.477 141.259 313.219 141.15 312.98C141.041 312.741 140.886 312.526 140.694 312.347C140.502 312.168 140.276 312.028 140.03 311.936C139.784 311.844 139.522 311.802 139.26 311.811C138.997 311.82 138.739 311.881 138.5 311.99ZM123.5 311.99C123.052 311.705 122.509 311.61 121.99 311.725C121.472 311.84 121.02 312.157 120.735 312.605C120.45 313.053 120.355 313.596 120.47 314.115C120.585 314.633 120.902 315.085 121.35 315.37C121.572 315.511 121.819 315.607 122.079 315.653C122.338 315.698 122.603 315.692 122.86 315.635C123.117 315.578 123.36 315.471 123.575 315.32C123.79 315.169 123.974 314.977 124.115 314.755C124.256 314.533 124.352 314.285 124.398 314.026C124.443 313.767 124.437 313.502 124.38 313.245C124.323 312.988 124.216 312.745 124.065 312.53C123.914 312.315 123.722 312.131 123.5 311.99V311.99ZM116 299C116 298.47 115.789 297.961 115.414 297.586C115.039 297.211 114.53 297 114 297C113.47 297 112.961 297.211 112.586 297.586C112.211 297.961 112 298.47 112 299C112 299.53 112.211 300.039 112.586 300.414C112.961 300.789 113.47 301 114 301C114.53 301 115.039 300.789 115.414 300.414C115.789 300.039 116 299.53 116 299ZM123.5 286.01C123.739 285.901 123.954 285.746 124.133 285.554C124.312 285.362 124.452 285.136 124.544 284.89C124.636 284.644 124.678 284.382 124.669 284.12C124.66 283.857 124.599 283.599 124.49 283.36C124.381 283.121 124.226 282.906 124.034 282.727C123.842 282.548 123.616 282.408 123.37 282.316C123.124 282.224 122.862 282.182 122.6 282.191C122.337 282.2 122.079 282.261 121.84 282.37C121.357 282.59 120.982 282.993 120.796 283.49C120.61 283.987 120.63 284.537 120.85 285.02C121.07 285.503 121.473 285.878 121.97 286.064C122.467 286.25 123.017 286.23 123.5 286.01V286.01ZM138.5 286.01C138.722 286.151 138.969 286.247 139.229 286.293C139.488 286.338 139.753 286.332 140.01 286.275C140.267 286.218 140.51 286.111 140.725 285.96C140.94 285.809 141.124 285.617 141.265 285.395C141.406 285.173 141.502 284.926 141.548 284.666C141.593 284.407 141.587 284.142 141.53 283.885C141.473 283.628 141.366 283.385 141.215 283.17C141.064 282.955 140.872 282.771 140.65 282.63C140.202 282.345 139.659 282.25 139.14 282.365C138.622 282.48 138.17 282.797 137.885 283.245C137.6 283.693 137.504 284.236 137.62 284.755C137.735 285.273 138.052 285.725 138.5 286.01V286.01ZM242.3 224.31L241.5 216.09L247.3 214.54L250.72 222.06C252.98 221.63 255.29 221.32 257.64 221.16L259 213H265L266.36 221.16C268.71 221.32 271.02 221.63 273.28 222.06L276.7 214.54L282.5 216.09L281.7 224.31C283.91 225.08 286.07 225.97 288.15 226.99L293.4 220.61L298.6 223.61L295.7 231.35C297.624 232.659 299.47 234.078 301.23 235.6L307.96 230.8L312.2 235.04L307.4 241.77C308.922 243.53 310.341 245.376 311.65 247.3L319.39 244.4L322.39 249.6L316.01 254.85C317.029 256.946 317.923 259.099 318.69 261.3L326.91 260.5L328.46 266.3L320.94 269.72C321.37 271.98 321.68 274.29 321.84 276.64L330 278V284L321.84 285.36C321.674 287.682 321.374 289.993 320.94 292.28L328.46 295.7L326.91 301.5L318.69 300.7C317.923 302.901 317.029 305.054 316.01 307.15L322.39 312.4L319.39 317.6L311.65 314.7C310.341 316.624 308.922 318.47 307.4 320.23L312.2 326.96L307.96 331.2L301.23 326.4C299.47 327.922 297.624 329.341 295.7 330.65L298.6 338.39L293.4 341.39L288.15 335.01C286.054 336.029 283.901 336.923 281.7 337.69L282.5 345.91L276.7 347.46L273.28 339.94C271.02 340.37 268.71 340.68 266.36 340.84L265 349H259L257.64 340.84C255.318 340.674 253.007 340.374 250.72 339.94L247.3 347.46L241.5 345.91L242.3 337.69C240.099 336.923 237.946 336.029 235.85 335.01L230.6 341.39L225.4 338.39L228.3 330.65C226.376 329.341 224.53 327.922 222.77 326.4L216.04 331.2L211.8 326.96L216.6 320.23C215.078 318.47 213.659 316.624 212.35 314.7L204.61 317.6L201.61 312.4L207.99 307.15C206.971 305.054 206.077 302.901 205.31 300.7L197.09 301.5L195.54 295.7L203.06 292.28C202.63 289.99 202.33 287.68 202.16 285.36L194 284V278L202.16 276.64C202.32 274.29 202.63 271.98 203.06 269.72L195.54 266.3L197.09 260.5L205.31 261.3C206.08 259.1 206.97 256.95 207.99 254.85L201.61 249.6L204.61 244.4L212.35 247.3C213.659 245.376 215.078 243.53 216.6 241.77L211.8 235.04L216.04 230.8L222.77 235.6C224.53 234.078 226.376 232.659 228.3 231.35L225.4 223.61L230.6 220.61L235.85 226.99C237.946 225.971 240.099 225.077 242.3 224.31V224.31ZM244.42 225.71C241.27 226.71 238.23 227.98 235.34 229.48L230.15 223.18L227.85 224.51L230.71 232.16C227.95 233.93 225.344 235.931 222.92 238.14L216.27 233.39L214.39 235.27L219.14 241.92C216.931 244.344 214.93 246.95 213.16 249.71L205.51 246.85L204.18 249.15L210.48 254.35C208.968 257.261 207.706 260.295 206.71 263.42L198.59 262.63L197.9 265.21L205.33 268.59C204.633 271.792 204.208 275.047 204.06 278.32L196 279.67V282.33L204.06 283.68C204.21 287 204.64 290.26 205.33 293.41L197.9 296.79L198.6 299.37L206.71 298.58C207.71 301.73 208.98 304.77 210.48 307.66L204.18 312.85L205.51 315.15L213.16 312.29C214.93 315.05 216.931 317.656 219.14 320.08L214.39 326.73L216.27 328.61L222.92 323.86C225.35 326.062 227.955 328.062 230.71 329.84L227.85 337.49L230.15 338.82L235.35 332.52C238.259 334.035 241.294 335.297 244.42 336.29L243.63 344.41L246.21 345.1L249.59 337.67C252.74 338.36 255.99 338.79 259.32 338.94L260.67 347H263.33L264.68 338.94C268 338.79 271.26 338.36 274.41 337.67L277.79 345.1L280.37 344.4L279.58 336.29C282.73 335.29 285.77 334.02 288.66 332.52L293.85 338.82L296.15 337.49L293.29 329.84C296.05 328.07 298.656 326.069 301.08 323.86L307.73 328.61L309.61 326.73L304.86 320.08C307.062 317.65 309.062 315.045 310.84 312.29L318.49 315.15L319.82 312.85L313.52 307.65C315.035 304.741 316.297 301.706 317.29 298.58L325.41 299.37L326.1 296.79L318.67 293.41C319.367 290.208 319.792 286.953 319.94 283.68L328 282.33V279.67L319.94 278.32C319.792 275.047 319.367 271.792 318.67 268.59L326.1 265.21L325.4 262.63L317.29 263.42C316.29 260.27 315.02 257.23 313.52 254.34L319.82 249.15L318.49 246.85L310.84 249.71C309.07 246.95 307.069 244.344 304.86 241.92L309.61 235.27L307.73 233.39L301.08 238.14C298.656 235.931 296.05 233.93 293.29 232.16L296.15 224.51L293.85 223.18L288.65 229.48C285.739 227.968 282.705 226.706 279.58 225.71L280.37 217.59L277.79 216.9L274.41 224.33C271.208 223.633 267.953 223.208 264.68 223.06L263.33 215H260.67L259.32 223.06C256 223.21 252.74 223.64 249.59 224.33L246.21 216.9L243.63 217.6L244.42 225.71V225.71ZM249 275.81C247.663 279.144 247.663 282.866 249 286.2L215.12 305.75C211.088 298.124 208.986 289.626 209 281C209 272.06 211.21 263.63 215.12 256.25L249 275.8V275.81V275.81ZM251 272.34L217.13 252.78C221.721 245.477 228.026 239.406 235.498 235.095C242.969 230.783 251.38 228.361 260 228.04V267.14C256.444 267.653 253.221 269.515 251 272.34V272.34ZM251 289.66C253.221 292.485 256.444 294.347 260 294.86V333.96C251.38 333.639 242.969 331.217 235.498 326.905C228.026 322.594 221.721 316.523 217.13 309.22L251 289.66V289.66ZM264 294.86C267.556 294.347 270.779 292.485 273 289.66L306.87 309.22C302.279 316.523 295.974 322.594 288.502 326.905C281.031 331.217 272.62 333.639 264 333.96V294.86ZM275 286.2C276.34 282.863 276.34 279.137 275 275.8L308.88 256.25C312.912 263.876 315.014 272.374 315 281C315 289.94 312.79 298.37 308.88 305.75L275 286.2V286.2ZM273 272.34C270.779 269.515 267.556 267.653 264 267.14V228.04C272.62 228.361 281.031 230.783 288.502 235.095C295.974 239.406 302.279 245.477 306.87 252.78L273 272.34V272.34ZM215.96 259.04C212.685 265.897 210.99 273.401 211 281C210.99 288.599 212.685 296.103 215.96 302.96L246.58 285.28C245.8 282.48 245.8 279.52 246.58 276.72L215.96 259.04V259.04ZM219.96 252.11L250.58 269.79C252.62 267.715 255.184 266.232 258 265.5V230.15C250.423 230.742 243.075 233.022 236.493 236.821C229.911 240.621 224.262 245.845 219.96 252.11V252.11ZM219.96 309.89C224.262 316.155 229.911 321.379 236.493 325.179C243.075 328.978 250.423 331.258 258 331.85V296.5C255.182 295.772 252.617 294.289 250.58 292.21L219.96 309.89V309.89ZM266 331.85C273.577 331.258 280.925 328.978 287.507 325.179C294.089 321.379 299.738 316.155 304.04 309.89L273.42 292.21C271.38 294.285 268.816 295.768 266 296.5V331.85V331.85ZM308.04 302.96C311.315 296.103 313.01 288.599 313 281C313.01 273.401 311.315 265.897 308.04 259.04L277.42 276.72C278.2 279.52 278.2 282.48 277.42 285.28L308.04 302.96ZM304.04 252.11C299.738 245.845 294.089 240.621 287.507 236.821C280.925 233.022 273.577 230.742 266 230.15V265.5C268.86 266.24 271.41 267.75 273.42 269.79L304.04 252.11V252.11ZM262 290C259.613 290 257.324 289.052 255.636 287.364C253.948 285.676 253 283.387 253 281C253 278.613 253.948 276.324 255.636 274.636C257.324 272.948 259.613 272 262 272C264.387 272 266.676 272.948 268.364 274.636C270.052 276.324 271 278.613 271 281C271 283.387 270.052 285.676 268.364 287.364C266.676 289.052 264.387 290 262 290ZM262 288C263.857 288 265.637 287.262 266.95 285.95C268.262 284.637 269 282.857 269 281C269 279.143 268.262 277.363 266.95 276.05C265.637 274.738 263.857 274 262 274C260.143 274 258.363 274.738 257.05 276.05C255.738 277.363 255 279.143 255 281C255 282.857 255.738 284.637 257.05 285.95C258.363 287.262 260.143 288 262 288ZM-9.76585e-06 242.64L2.75999 243.04L7.50999 245.31C8.39332 244.122 9.34492 242.987 10.36 241.91L7.29999 237.63L5.60999 232.52L8.67999 229.94L13.42 232.49L17.11 236.25C18.3456 235.436 19.6278 234.695 20.95 234.03L19.53 228.96L19.7 223.58L23.46 222.21L27.06 226.23L29.23 231.02C30.65 230.68 32.11 230.42 33.6 230.25L34 225L36 220H40L42 225L42.4 230.25C43.89 230.42 45.35 230.68 46.77 231.02L48.95 226.22L52.54 222.22L56.3 223.58L56.47 228.96L55.05 234.03C56.38 234.7 57.65 235.44 58.89 236.25L62.58 232.49L67.32 229.94L70.39 232.52L68.7 237.63L65.64 241.92C66.6551 242.997 67.6067 244.132 68.49 245.32L73.24 243.04L78.57 242.27L80.57 245.73L77.24 249.96L72.9 252.94C73.49 254.3 74 255.69 74.42 257.11L79.65 256.59L84.92 257.69L85.62 261.63L81.04 264.47L75.94 265.78C76.0252 267.259 76.0252 268.741 75.94 270.22L81.04 271.52L85.62 274.37L84.92 278.3L79.65 279.4L74.42 278.9C73.9985 280.316 73.4909 281.706 72.9 283.06L77.24 286.04L80.57 290.27L78.57 293.73L73.24 292.96L68.49 290.69C67.6067 291.878 66.6551 293.013 65.64 294.09L68.7 298.37L70.39 303.48L67.32 306.06L62.58 303.51L58.89 299.75C57.6544 300.564 56.3722 301.305 55.05 301.97L56.47 307.04L56.3 312.42L52.54 313.79L48.94 309.77L46.77 304.98C45.35 305.32 43.89 305.58 42.4 305.75L42 311L40 316H36L34 311L33.6 305.75C32.1295 305.579 30.6704 305.322 29.23 304.98L27.05 309.78L23.46 313.78L19.7 312.42L19.53 307.04L20.95 301.97C19.63 301.31 18.35 300.57 17.11 299.75L13.42 303.51L8.67999 306.06L5.60999 303.48L7.29999 298.37L10.36 294.08C9.34492 293.003 8.39332 291.868 7.50999 290.68L2.75999 292.96L-9.76585e-06 293.36V285.19L3.09999 283.06C2.51191 281.701 2.00437 280.309 1.57999 278.89L-9.76585e-06 279.05V270.23L0.0599902 270.22C-0.0251994 268.741 -0.0251994 267.259 0.0599902 265.78L-9.76585e-06 265.77V256.95L1.57999 257.11C2.00999 255.68 2.51999 254.29 3.09999 252.94L-9.76585e-06 250.8V242.63V242.64V242.64ZM-9.76585e-06 244.51V248.4L5.61999 252.24C4.52715 254.485 3.67248 256.837 3.06999 259.26L-9.76585e-06 258.96V263.71L2.19999 264.27C1.94464 266.75 1.94464 269.25 2.19999 271.73L-9.76585e-06 272.29V277.04L3.06999 276.74C3.66863 279.164 4.52344 281.517 5.61999 283.76L-9.76585e-06 287.6V291.49L1.75999 291.23L8.16999 288.16C9.56999 290.22 11.17 292.14 12.97 293.87L8.82999 299.65L7.81999 302.72L9.03999 303.75L11.89 302.23L16.87 297.15C18.87 298.6 21.03 299.85 23.32 300.88L21.42 307.72L21.52 310.95L23.02 311.5L25.17 309.1L28.11 302.62C30.5049 303.307 32.9648 303.743 35.45 303.92L36 311L37.2 314H38.8L40 311L40.55 303.91C43.0348 303.736 45.4947 303.303 47.89 302.62L50.83 309.09L52.98 311.49L54.48 310.95L54.58 307.72L52.68 300.88C54.9533 299.863 57.1149 298.613 59.13 297.15L64.11 302.23L66.96 303.75L68.18 302.72L67.18 299.65L63.03 293.87C64.8239 292.142 66.4326 290.232 67.83 288.17L74.23 291.23L77.43 291.69L78.23 290.31L76.23 287.77L70.38 283.76C71.48 281.52 72.33 279.16 72.93 276.74L80 277.44L83.16 276.78L83.44 275.2L80.69 273.5L73.81 271.73C74.07 269.25 74.07 266.75 73.81 264.27L80.69 262.5L83.44 260.8L83.16 259.22L80 258.56L72.93 259.26C72.3275 256.837 71.4728 254.485 70.38 252.24L76.24 248.24L78.24 245.69L77.44 244.31L74.24 244.77L67.83 247.84C66.43 245.78 64.83 243.86 63.03 242.13L67.17 236.35L68.18 233.28L66.96 232.25L64.11 233.77L59.13 238.85C57.13 237.4 54.97 236.15 52.68 235.12L54.58 228.28L54.48 225.05L52.98 224.5L50.83 226.9L47.89 233.38C45.4951 232.693 43.0351 232.257 40.55 232.08L40 225L38.8 222H37.2L36 225L35.45 232.09C32.97 232.26 30.51 232.69 28.11 233.38L25.17 226.91L23.02 224.51L21.52 225.05L21.42 228.28L23.32 235.12C21.0466 236.137 18.885 237.387 16.87 238.85L11.89 233.77L9.03999 232.25L7.81999 233.28L8.81999 236.35L12.97 242.13C11.1781 243.86 9.56954 245.77 8.16999 247.83L1.76999 244.77L-9.76585e-06 244.5V244.51ZM38 272C36.9391 272 35.9217 271.579 35.1716 270.828C34.4214 270.078 34 269.061 34 268C34 266.939 34.4214 265.922 35.1716 265.172C35.9217 264.421 36.9391 264 38 264C39.0609 264 40.0783 264.421 40.8284 265.172C41.5786 265.922 42 266.939 42 268C42 269.061 41.5786 270.078 40.8284 270.828C40.0783 271.579 39.0609 272 38 272ZM38 270C38.5304 270 39.0391 269.789 39.4142 269.414C39.7893 269.039 40 268.53 40 268C40 267.47 39.7893 266.961 39.4142 266.586C39.0391 266.211 38.5304 266 38 266C37.4696 266 36.9608 266.211 36.5858 266.586C36.2107 266.961 36 267.47 36 268C36 268.53 36.2107 269.039 36.5858 269.414C36.9608 269.789 37.4696 270 38 270ZM38 244C36.9391 244 35.9217 243.579 35.1716 242.828C34.4214 242.078 34 241.061 34 240C34 238.939 34.4214 237.922 35.1716 237.172C35.9217 236.421 36.9391 236 38 236C39.0609 236 40.0783 236.421 40.8284 237.172C41.5786 237.922 42 238.939 42 240C42 241.061 41.5786 242.078 40.8284 242.828C40.0783 243.579 39.0609 244 38 244ZM62 268C62 266.939 62.4214 265.922 63.1716 265.172C63.9217 264.421 64.9391 264 66 264C67.0609 264 68.0783 264.421 68.8284 265.172C69.5786 265.922 70 266.939 70 268C70 269.061 69.5786 270.078 68.8284 270.828C68.0783 271.579 67.0609 272 66 272C64.9391 272 63.9217 271.579 63.1716 270.828C62.4214 270.078 62 269.061 62 268ZM38 292C39.0609 292 40.0783 292.421 40.8284 293.172C41.5786 293.922 42 294.939 42 296C42 297.061 41.5786 298.078 40.8284 298.828C40.0783 299.579 39.0609 300 38 300C36.9391 300 35.9217 299.579 35.1716 298.828C34.4214 298.078 34 297.061 34 296C34 294.939 34.4214 293.922 35.1716 293.172C35.9217 292.421 36.9391 292 38 292V292ZM14 268C14 269.061 13.5786 270.078 12.8284 270.828C12.0783 271.579 11.0609 272 9.99999 272C8.93912 272 7.92171 271.579 7.17156 270.828C6.42142 270.078 5.99999 269.061 5.99999 268C5.99999 266.939 6.42142 265.922 7.17156 265.172C7.92171 264.421 8.93912 264 9.99999 264C11.0609 264 12.0783 264.421 12.8284 265.172C13.5786 265.922 14 266.939 14 268ZM38 242C38.5304 242 39.0391 241.789 39.4142 241.414C39.7893 241.039 40 240.53 40 240C40 239.47 39.7893 238.961 39.4142 238.586C39.0391 238.211 38.5304 238 38 238C37.4696 238 36.9608 238.211 36.5858 238.586C36.2107 238.961 36 239.47 36 240C36 240.53 36.2107 241.039 36.5858 241.414C36.9608 241.789 37.4696 242 38 242ZM64 268C64 268.53 64.2107 269.039 64.5858 269.414C64.9609 269.789 65.4696 270 66 270C66.5304 270 67.0391 269.789 67.4142 269.414C67.7893 269.039 68 268.53 68 268C68 267.47 67.7893 266.961 67.4142 266.586C67.0391 266.211 66.5304 266 66 266C65.4696 266 64.9609 266.211 64.5858 266.586C64.2107 266.961 64 267.47 64 268V268ZM38 294C37.4696 294 36.9608 294.211 36.5858 294.586C36.2107 294.961 36 295.47 36 296C36 296.53 36.2107 297.039 36.5858 297.414C36.9608 297.789 37.4696 298 38 298C38.5304 298 39.0391 297.789 39.4142 297.414C39.7893 297.039 40 296.53 40 296C40 295.47 39.7893 294.961 39.4142 294.586C39.0391 294.211 38.5304 294 38 294ZM12 268C12 267.47 11.7893 266.961 11.4142 266.586C11.0391 266.211 10.5304 266 9.99999 266C9.46956 266 8.96085 266.211 8.58578 266.586C8.2107 266.961 7.99999 267.47 7.99999 268C7.99999 268.53 8.2107 269.039 8.58578 269.414C8.96085 269.789 9.46956 270 9.99999 270C10.5304 270 11.0391 269.789 11.4142 269.414C11.7893 269.039 12 268.53 12 268ZM15.37 290.63C14.2052 289.568 13.2609 288.287 12.591 286.861C11.9212 285.434 11.5389 283.89 11.466 282.315C11.3931 280.741 11.631 279.167 12.1662 277.685C12.7013 276.202 13.5233 274.84 14.585 273.675C15.6467 272.51 16.9275 271.566 18.3542 270.896C19.7809 270.226 21.3255 269.844 22.8999 269.771C24.4743 269.698 26.0477 269.936 27.5302 270.471C29.0126 271.006 30.3752 271.828 31.54 272.89C33.8925 275.034 35.2968 278.025 35.444 281.205C35.5912 284.385 34.4693 287.493 32.325 289.845C30.1807 292.197 27.1897 293.602 24.0101 293.749C20.8304 293.896 17.7225 292.774 15.37 290.63V290.63ZM15.37 245.37C16.4317 244.205 17.7125 243.261 19.1392 242.591C20.5659 241.921 22.1105 241.539 23.6849 241.466C25.2593 241.393 26.8327 241.631 28.3152 242.166C29.7976 242.701 31.1602 243.523 32.325 244.585C33.4898 245.647 34.4341 246.928 35.104 248.354C35.7738 249.781 36.1561 251.326 36.229 252.9C36.3019 254.474 36.064 256.048 35.5288 257.53C34.9936 259.013 34.1717 260.375 33.11 261.54C30.9657 263.892 27.9747 265.297 24.7951 265.444C21.6154 265.591 18.5075 264.469 16.155 262.325C13.8025 260.181 12.3982 257.19 12.251 254.01C12.1038 250.83 13.2257 247.722 15.37 245.37V245.37ZM60.63 245.37C61.7948 246.432 62.7391 247.713 63.409 249.139C64.0788 250.566 64.4611 252.111 64.534 253.685C64.6069 255.259 64.369 256.833 63.8338 258.315C63.2986 259.798 62.4767 261.16 61.415 262.325C60.3533 263.49 59.0725 264.434 57.6458 265.104C56.2191 265.774 54.6745 266.156 53.1001 266.229C51.5256 266.302 49.9523 266.064 48.4698 265.529C46.9874 264.994 45.6248 264.172 44.46 263.11C42.1075 260.966 40.7032 257.975 40.556 254.795C40.4088 251.615 41.5307 248.507 43.675 246.155C45.8193 243.803 48.8102 242.398 51.9899 242.251C55.1696 242.104 58.2775 243.226 60.63 245.37V245.37ZM60.63 290.63C58.4857 292.982 55.4947 294.387 52.3151 294.534C49.1354 294.681 46.0275 293.559 43.675 291.415C41.3225 289.271 39.9182 286.28 39.771 283.1C39.6238 279.92 40.7457 276.812 42.89 274.46C43.9517 273.295 45.2325 272.351 46.6592 271.681C48.0858 271.011 49.6305 270.629 51.2049 270.556C52.7793 270.483 54.3527 270.721 55.8352 271.256C57.3176 271.791 58.6802 272.613 59.845 273.675C61.0098 274.737 61.9541 276.018 62.624 277.444C63.2938 278.871 63.6761 280.416 63.749 281.99C63.8219 283.564 63.584 285.138 63.0488 286.62C62.5136 288.103 61.6917 289.465 60.63 290.63V290.63ZM45.07 260.93C46.9132 262.838 49.439 263.936 52.0917 263.982C54.7444 264.028 57.3068 263.018 59.215 261.175C61.1232 259.332 62.2211 256.806 62.267 254.153C62.313 251.501 61.3032 248.938 59.46 247.03C58.5473 246.085 57.4574 245.329 56.2527 244.806C55.0479 244.282 53.7517 244.001 52.4382 243.978C51.1247 243.955 49.8196 244.191 48.5974 244.673C47.3752 245.155 46.2598 245.872 45.315 246.785C44.3701 247.698 43.6143 248.788 43.0906 249.992C42.567 251.197 42.2857 252.493 42.263 253.807C42.2402 255.12 42.4764 256.425 42.958 257.648C43.4397 258.87 44.1573 259.985 45.07 260.93V260.93ZM45.07 275.07C44.1251 275.983 43.3693 277.073 42.8456 278.277C42.322 279.482 42.0407 280.778 42.018 282.092C41.9952 283.405 42.2314 284.71 42.713 285.933C43.1947 287.155 43.9123 288.27 44.825 289.215C45.7377 290.16 46.8275 290.916 48.0323 291.439C49.2371 291.963 50.5333 292.244 51.8467 292.267C53.1602 292.29 54.4653 292.054 55.6875 291.572C56.9098 291.09 58.0251 290.373 58.97 289.46C60.8782 287.617 61.9761 285.091 62.022 282.438C62.068 279.786 61.0582 277.223 59.215 275.315C57.3717 273.407 54.8459 272.309 52.1932 272.263C49.5405 272.217 46.9782 273.227 45.07 275.07V275.07ZM30.93 275.07C29.0867 273.162 26.5609 272.064 23.9082 272.018C21.2555 271.972 18.6932 272.982 16.785 274.825C14.8768 276.668 13.7789 279.194 13.733 281.847C13.687 284.499 14.6967 287.062 16.54 288.97C18.3832 290.878 20.909 291.976 23.5617 292.022C24.8752 292.045 26.1803 291.809 27.4025 291.327C28.6248 290.845 29.7401 290.128 30.685 289.215C31.6299 288.302 32.3857 287.212 32.9094 286.008C33.433 284.803 33.7143 283.507 33.737 282.193C33.7598 280.88 33.5236 279.575 33.042 278.352C32.5603 277.13 31.8427 276.015 30.93 275.07V275.07ZM30.93 260.93C32.8382 259.087 33.9361 256.561 33.982 253.908C34.028 251.256 33.0182 248.693 31.175 246.785C29.3317 244.877 26.8059 243.779 24.1532 243.733C21.5005 243.687 18.9382 244.697 17.03 246.54C15.1218 248.383 14.0239 250.909 13.978 253.562C13.932 256.214 14.9417 258.777 16.785 260.685C18.6282 262.593 21.154 263.691 23.8067 263.737C26.4595 263.783 29.0218 262.773 30.93 260.93V260.93ZM261.83 15.53L261.75 11.35L263.68 10.83L265.72 14.5C266.79 14.3 267.88 14.15 268.98 14.07L270 10H272L273.02 14.07C274.12 14.15 275.22 14.29 276.28 14.5L278.32 10.83L280.25 11.35L280.18 15.54C281.218 15.8978 282.233 16.3186 283.22 16.8L286.13 13.79L287.87 14.79L286.71 18.82C287.62 19.44 288.49 20.11 289.32 20.82L292.92 18.67L294.33 20.08L292.17 23.68C292.89 24.51 293.57 25.38 294.17 26.28L298.21 25.13L299.21 26.87L296.2 29.78C296.68 30.76 297.1 31.78 297.46 32.82L301.66 32.75L302.16 34.68L298.5 36.72C298.7 37.79 298.85 38.88 298.93 39.98L303 41V43L298.93 44.02C298.853 45.1144 298.71 46.2031 298.5 47.28L302.17 49.32L301.65 51.25L297.46 51.18C297.1 52.2173 296.68 53.2324 296.2 54.22L299.21 57.13L298.21 58.87L294.18 57.71C293.56 58.62 292.89 59.49 292.18 60.32L294.33 63.92L292.92 65.33L289.32 63.17C288.49 63.89 287.62 64.57 286.72 65.17L287.87 69.21L286.13 70.21L283.22 67.2C282.233 67.6814 281.218 68.1022 280.18 68.46L280.25 72.66L278.32 73.16L276.28 69.5C275.21 69.7 274.12 69.85 273.02 69.93L272 74H270L268.98 69.93C267.886 69.8533 266.797 69.7097 265.72 69.5L263.68 73.17L261.75 72.65L261.82 68.46C260.783 68.1004 259.768 67.6796 258.78 67.2L255.87 70.21L254.13 69.21L255.29 65.18C254.39 64.56 253.51 63.89 252.68 63.18L249.08 65.33L247.67 63.92L249.83 60.32C249.11 59.49 248.43 58.62 247.83 57.72L243.79 58.87L242.79 57.13L245.8 54.22C245.319 53.2332 244.898 52.218 244.54 51.18L240.34 51.25L239.84 49.32L243.5 47.28C243.3 46.21 243.15 45.12 243.07 44.02L239 43V41L243.07 39.98C243.15 38.88 243.29 37.78 243.5 36.72L239.83 34.68L240.35 32.75L244.54 32.82C244.898 31.782 245.319 30.7668 245.8 29.78L242.79 26.87L243.79 25.13L247.82 26.29C248.44 25.38 249.11 24.51 249.82 23.68L247.67 20.08L249.08 18.67L252.68 20.83C253.51 20.11 254.38 19.43 255.28 18.83L254.13 14.79L255.87 13.79L258.78 16.8C259.767 16.3186 260.782 15.8978 261.82 15.54L261.83 15.53V15.53ZM271 68C277.896 68 284.509 65.2607 289.385 60.3848C294.261 55.5088 297 48.8956 297 42C297 35.1044 294.261 28.4912 289.385 23.6152C284.509 18.7393 277.896 16 271 16C264.104 16 257.491 18.7393 252.615 23.6152C247.739 28.4912 245 35.1044 245 42C245 48.8956 247.739 55.5088 252.615 60.3848C257.491 65.2607 264.104 68 271 68V68ZM271 59C266.491 59 262.167 57.2089 258.979 54.0208C255.791 50.8327 254 46.5087 254 42C254 37.4913 255.791 33.1673 258.979 29.9792C262.167 26.7911 266.491 25 271 25C275.509 25 279.833 26.7911 283.021 29.9792C286.209 33.1673 288 37.4913 288 42C288 46.5087 286.209 50.8327 283.021 54.0208C279.833 57.2089 275.509 59 271 59ZM271 57C272.97 57 274.92 56.612 276.74 55.8582C278.56 55.1044 280.214 53.9995 281.607 52.6066C282.999 51.2137 284.104 49.5601 284.858 47.7402C285.612 45.9204 286 43.9698 286 42C286 40.0302 285.612 38.0796 284.858 36.2598C284.104 34.4399 282.999 32.7863 281.607 31.3934C280.214 30.0005 278.56 28.8956 276.74 28.1418C274.92 27.388 272.97 27 271 27C267.022 27 263.206 28.5804 260.393 31.3934C257.58 34.2064 256 38.0218 256 42C256 45.9782 257.58 49.7936 260.393 52.6066C263.206 55.4196 267.022 57 271 57V57ZM271 49C269.143 49 267.363 48.2625 266.05 46.9497C264.738 45.637 264 43.8565 264 42C264 40.1435 264.738 38.363 266.05 37.0503C267.363 35.7375 269.143 35 271 35C272.857 35 274.637 35.7375 275.95 37.0503C277.262 38.363 278 40.1435 278 42C278 43.8565 277.262 45.637 275.95 46.9497C274.637 48.2625 272.857 49 271 49V49ZM271 47C272.326 47 273.598 46.4732 274.536 45.5355C275.473 44.5979 276 43.3261 276 42C276 40.6739 275.473 39.4021 274.536 38.4645C273.598 37.5268 272.326 37 271 37C269.674 37 268.402 37.5268 267.464 38.4645C266.527 39.4021 266 40.6739 266 42C266 43.3261 266.527 44.5979 267.464 45.5355C268.402 46.4732 269.674 47 271 47ZM271 33C270.47 33 269.961 32.7893 269.586 32.4142C269.211 32.0391 269 31.5304 269 31C269 30.4696 269.211 29.9609 269.586 29.5858C269.961 29.2107 270.47 29 271 29C271.53 29 272.039 29.2107 272.414 29.5858C272.789 29.9609 273 30.4696 273 31C273 31.5304 272.789 32.0391 272.414 32.4142C272.039 32.7893 271.53 33 271 33ZM280 42C280 41.4696 280.211 40.9609 280.586 40.5858C280.961 40.2107 281.47 40 282 40C282.53 40 283.039 40.2107 283.414 40.5858C283.789 40.9609 284 41.4696 284 42C284 42.5304 283.789 43.0391 283.414 43.4142C283.039 43.7893 282.53 44 282 44C281.47 44 280.961 43.7893 280.586 43.4142C280.211 43.0391 280 42.5304 280 42ZM271 51C271.53 51 272.039 51.2107 272.414 51.5858C272.789 51.9609 273 52.4696 273 53C273 53.5304 272.789 54.0391 272.414 54.4142C272.039 54.7893 271.53 55 271 55C270.47 55 269.961 54.7893 269.586 54.4142C269.211 54.0391 269 53.5304 269 53C269 52.4696 269.211 51.9609 269.586 51.5858C269.961 51.2107 270.47 51 271 51ZM262 42C262 42.5304 261.789 43.0391 261.414 43.4142C261.039 43.7893 260.53 44 260 44C259.47 44 258.961 43.7893 258.586 43.4142C258.211 43.0391 258 42.5304 258 42C258 41.4696 258.211 40.9609 258.586 40.5858C258.961 40.2107 259.47 40 260 40C260.53 40 261.039 40.2107 261.414 40.5858C261.789 40.9609 262 41.4696 262 42ZM309.93 95.79L308.13 91.88L309.76 90.7L312.91 93.62C313.31 93.45 313.73 93.32 314.16 93.22L315 89H317L317.84 93.21C318.27 93.31 318.69 93.45 319.09 93.61L322.24 90.71L323.86 91.88L322.06 95.78C322.36 96.11 322.61 96.47 322.84 96.84L327.1 96.34L327.72 98.24L323.97 100.34C324.01 100.78 324.01 101.21 323.97 101.65L327.72 103.75L327.1 105.65L322.84 105.15C322.61 105.53 322.35 105.89 322.07 106.21L323.87 110.12L322.24 111.3L319.09 108.38C318.69 108.55 318.27 108.68 317.84 108.78L317 113H315L314.16 108.79C313.73 108.69 313.31 108.55 312.91 108.39L309.76 111.29L308.14 110.12L309.94 106.22C309.651 105.889 309.391 105.534 309.16 105.16L304.9 105.66L304.28 103.76L308.03 101.66C307.995 101.224 307.995 100.786 308.03 100.35L304.28 98.25L304.9 96.35L309.16 96.85C309.39 96.47 309.65 96.11 309.93 95.79V95.79ZM316 106C317.326 106 318.598 105.473 319.536 104.536C320.473 103.598 321 102.326 321 101C321 99.6739 320.473 98.4021 319.536 97.4645C318.598 96.5268 317.326 96 316 96C314.674 96 313.402 96.5268 312.464 97.4645C311.527 98.4021 311 99.6739 311 101C311 102.326 311.527 103.598 312.464 104.536C313.402 105.473 314.674 106 316 106V106ZM75.73 179.2L75.13 177.1L76.87 176.1L78.38 177.67C79.0578 177.41 79.762 177.226 80.48 177.12L81 175H83L83.53 177.12C84.25 177.22 84.95 177.42 85.62 177.67L87.13 176.11L88.87 177.11L88.27 179.21C88.83 179.66 89.34 180.17 89.79 180.73L91.89 180.13L92.89 181.87L91.33 183.38C91.58 184.05 91.77 184.75 91.88 185.48L94 186V188L91.88 188.53C91.7735 189.245 91.589 189.945 91.33 190.62L92.89 192.13L91.89 193.87L89.79 193.27C89.3398 193.83 88.8302 194.34 88.27 194.79L88.87 196.89L87.13 197.89L85.62 196.33C84.95 196.58 84.25 196.77 83.52 196.88L83 199H81L80.47 196.88C79.76 196.78 79.05 196.58 78.38 196.33L76.87 197.89L75.13 196.89L75.73 194.79C75.1698 194.34 74.6602 193.83 74.21 193.27L72.11 193.87L71.11 192.13L72.67 190.62C72.4105 189.942 72.226 189.238 72.12 188.52L70 188V186L72.12 185.47C72.22 184.75 72.42 184.05 72.67 183.38L71.11 181.87L72.11 180.13L74.21 180.73C74.66 180.17 75.17 179.66 75.73 179.21V179.2V179.2ZM77.88 180.14C76.7569 180.816 75.8163 181.757 75.14 182.88L75 183.13C74.3415 184.314 73.9959 185.646 73.9959 187C73.9959 188.354 74.3415 189.686 75 190.87L75.14 191.12C75.8163 192.243 76.7569 193.184 77.88 193.86L78.13 194C79.3136 194.658 80.6456 195.004 82 195.004C83.3544 195.004 84.6864 194.658 85.87 194L86.12 193.86C87.2431 193.184 88.1837 192.243 88.86 191.12L89 190.87C89.6585 189.686 90.0041 188.354 90.0041 187C90.0041 185.646 89.6585 184.314 89 183.13L88.86 182.88C88.1837 181.757 87.2431 180.816 86.12 180.14L85.87 180C84.6864 179.342 83.3544 178.996 82 178.996C80.6456 178.996 79.3136 179.342 78.13 180L77.88 180.14ZM82 193C80.4087 193 78.8826 192.368 77.7574 191.243C76.6321 190.117 76 188.591 76 187C76 185.409 76.6321 183.883 77.7574 182.757C78.8826 181.632 80.4087 181 82 181C83.5913 181 85.1174 181.632 86.2426 182.757C87.3678 183.883 88 185.409 88 187C88 188.591 87.3678 190.117 86.2426 191.243C85.1174 192.368 83.5913 193 82 193ZM82 191C83.0609 191 84.0783 190.579 84.8284 189.828C85.5786 189.078 86 188.061 86 187C86 185.939 85.5786 184.922 84.8284 184.172C84.0783 183.421 83.0609 183 82 183C80.9391 183 79.9217 183.421 79.1716 184.172C78.4214 184.922 78 185.939 78 187C78 188.061 78.4214 189.078 79.1716 189.828C79.9217 190.579 80.9391 191 82 191ZM360 194.18L356.2 199.78L349.02 196.27L351.62 188.2C350.547 187.443 349.522 186.622 348.55 185.74L341.28 190.09L336.24 183.87L342.06 177.61C341.42 176.48 340.86 175.31 340.36 174.09L331.91 174.82L330.11 167.02L338.06 163.95C337.982 162.651 337.982 161.349 338.06 160.05L330.11 156.98L331.91 149.18L340.36 149.91C340.854 148.703 341.421 147.527 342.06 146.39L336.24 140.13L341.28 133.91L348.55 138.26C349.52 137.38 350.55 136.56 351.62 135.8L349.02 127.73L356.21 124.23L360 129.82V194.18V194.18ZM360 190.65V133.35L355.54 126.77L351.44 128.77L353.97 136.64C352.116 137.816 350.396 139.191 348.84 140.74L341.76 136.5L338.88 140.05L344.53 146.14C343.38 147.985 342.434 149.95 341.71 152L333.47 151.3L332.44 155.76L340.17 158.75C339.937 160.91 339.937 163.09 340.17 165.25L332.44 168.25L333.47 172.7L341.71 172C342.434 174.05 343.38 176.015 344.53 177.86L338.88 183.96L341.76 187.5L348.84 183.27C350.396 184.816 352.116 186.187 353.97 187.36L351.43 195.22L355.54 197.22L360 190.65V190.65ZM360 139.08V144.79L356.44 140.99C357.573 140.258 358.764 139.619 360 139.08ZM360 161.76L345.83 168.4C343.33 158.9 346.6 148.83 354.21 142.62L360 153.12V161.76V161.76ZM360 184.92C356.974 183.595 354.239 181.684 351.953 179.299C349.667 176.914 347.875 174.1 346.68 171.02L360 168.47V184.92V184.92ZM360 141.28L359.61 141.48L360 141.88V141.28ZM360 159.57V157.22L353.7 145.78C351.148 148.335 349.236 151.456 348.118 154.89C347.001 158.324 346.71 161.973 347.27 165.54L360 159.57ZM360 182.72V170.49L349.53 172.5C351.82 176.951 355.495 180.538 360 182.72V182.72ZM-9.76585e-06 129.82L0.99999 131.28C2.24789 130.916 3.51694 130.629 4.79999 130.42L5.99999 122H14L15.2 130.42C16.5 130.63 17.77 130.92 19 131.28L23.8 124.22L30.98 127.73L28.38 135.8C29.45 136.56 30.48 137.38 31.45 138.26L38.72 133.91L43.76 140.13L37.94 146.39C38.58 147.52 39.14 148.69 39.64 149.91L48.09 149.18L49.89 156.98L41.94 160.05C42.02 161.35 42.02 162.65 41.94 163.95L49.89 167.02L48.09 174.82L39.64 174.09C39.1423 175.295 38.5747 176.471 37.94 177.61L43.76 183.87L38.72 190.09L31.45 185.74C30.48 186.62 29.45 187.44 28.38 188.2L30.98 196.27L23.79 199.77L19.01 192.72C17.77 193.08 16.5 193.37 15.21 193.58L14 202H5.99999L4.79999 193.58C3.51694 193.371 2.24789 193.084 0.99999 192.72L-9.76585e-06 194.18V129.82ZM-9.76585e-06 133.35V190.65L0.19999 190.36C2.21999 191.06 4.34999 191.56 6.53999 191.8L7.70999 200H12.29L13.46 191.8C15.66 191.55 17.78 191.06 19.81 190.36L24.46 197.23L28.56 195.23L26.03 187.36C27.8842 186.184 29.6044 184.809 31.16 183.26L38.24 187.5L41.12 183.95L35.47 177.86C36.61 176.03 37.57 174.06 38.29 172L46.53 172.7L47.56 168.24L39.83 165.25C40.06 163.089 40.06 160.911 39.83 158.75L47.56 155.75L46.53 151.3L38.29 152C37.5661 149.95 36.6205 147.985 35.47 146.14L41.12 140.04L38.24 136.5L31.16 140.73C29.6039 139.184 27.8837 137.813 26.03 136.64L28.57 128.78L24.46 126.78L19.81 133.64C17.7522 132.93 15.6229 132.447 13.46 132.2L12.29 124H7.69999L6.52999 132.2C4.32999 132.45 2.20999 132.94 0.17999 133.64L-0.0100098 133.35H-9.76585e-06V133.35ZM34.17 168.4L17.91 160.78C17.7775 159.929 17.5073 159.105 17.11 158.34L25.79 142.62C29.5229 145.652 32.2998 149.699 33.7865 154.273C35.2732 158.846 35.4064 163.752 34.17 168.4V168.4ZM33.32 171.03C31.5814 175.513 28.5872 179.401 24.696 182.226C20.8047 185.051 16.1815 186.695 11.38 186.96L13.61 169.14C14.3733 168.75 15.0716 168.244 15.68 167.64L33.32 171.03ZM-9.76585e-06 139.08C3.15396 137.704 6.5588 136.995 9.99999 137C15 137 19.65 138.47 23.56 141L11.28 154.1C10.4321 153.964 9.56787 153.964 8.71999 154.1L-9.76585e-06 144.8V139.08ZM-9.76585e-06 161.76V153.11L2.87999 158.34C2.47999 159.11 2.21999 159.93 2.08999 160.78L-9.76585e-06 161.76V161.76ZM-9.76585e-06 184.92V168.47L4.31999 167.64C4.91999 168.24 5.61999 168.75 6.38999 169.14L8.61999 186.96C5.64999 186.8 2.71999 186.11 -9.76585e-06 184.92V184.92ZM9.99999 156C11.5913 156 13.1174 156.632 14.2426 157.757C15.3678 158.883 16 160.409 16 162C16 163.591 15.3678 165.117 14.2426 166.243C13.1174 167.368 11.5913 168 9.99999 168C8.40869 168 6.88257 167.368 5.75735 166.243C4.63213 165.117 3.99999 163.591 3.99999 162C3.99999 160.409 4.63213 158.883 5.75735 157.757C6.88257 156.632 8.40869 156 9.99999 156V156ZM9.99999 158C8.93912 158 7.92171 158.421 7.17156 159.172C6.42142 159.922 5.99999 160.939 5.99999 162C5.99999 163.061 6.42142 164.078 7.17156 164.828C7.92171 165.579 8.93912 166 9.99999 166C11.0609 166 12.0783 165.579 12.8284 164.828C13.5786 164.078 14 163.061 14 162C14 160.939 13.5786 159.922 12.8284 159.172C12.0783 158.421 11.0609 158 9.99999 158ZM-9.76585e-06 141.28V141.88L9.47999 152.01C9.82999 151.99 10.18 151.99 10.52 152.01L20.39 141.47C17.1697 139.839 13.6096 138.993 9.99999 139C6.41999 139 3.01999 139.82 -9.76585e-06 141.28ZM-9.76585e-06 159.57L0.33999 159.41C0.42999 159.07 0.53999 158.74 0.65999 158.42L-9.76585e-06 157.22V159.57ZM-9.76585e-06 182.72C1.96999 183.67 4.09999 184.35 6.33999 184.71L4.53999 170.38C4.25463 170.192 3.97769 169.992 3.70999 169.78L-9.76585e-06 170.48V182.72ZM13.66 184.71C17.2209 184.133 20.5964 182.727 23.5145 180.606C26.4326 178.485 28.8116 175.709 30.46 172.5L16.29 169.78C16.02 169.99 15.74 170.2 15.45 170.38L13.66 184.71ZM32.73 165.54C33.2894 161.975 32.9996 158.328 31.884 154.897C30.7685 151.465 28.8587 148.345 26.31 145.79L19.34 158.42C19.46 158.74 19.57 159.07 19.66 159.41L32.73 165.54ZM137.54 360L133.47 354.3L136.3 351.47L143.03 356.27C143.73 355.71 144.43 355.16 145.17 354.64L142.27 346.89L145.73 344.89L150.98 351.27C151.8 350.9 152.63 350.55 153.48 350.24L152.68 342.02L156.54 340.98L159.97 348.5C160.85 348.35 161.74 348.24 162.64 348.15L164 340H168L169.36 348.15C170.26 348.24 171.16 348.35 172.03 348.5L175.46 340.98L179.32 342.02L178.52 350.24C179.37 350.55 180.2 350.9 181.02 351.27L186.27 344.89L189.73 346.89L186.83 354.64C187.57 355.16 188.28 355.71 188.97 356.28L195.7 351.48L198.53 354.3L194.46 360H137.54V360ZM139.97 360H192.03L195.93 354.54L195.46 354.07L188.83 358.8C187.457 357.556 185.986 356.425 184.43 355.42L187.29 347.79L186.71 347.46L181.53 353.75C179.885 352.901 178.172 352.189 176.41 351.62L177.19 343.52L176.55 343.34L173.18 350.76C171.369 350.371 169.53 350.13 167.68 350.04L166.33 342H165.67L164.33 350.04C162.45 350.14 160.61 350.37 158.83 350.76L155.45 343.34L154.81 343.52L155.59 351.62C153.828 352.189 152.116 352.901 150.47 353.75L145.29 347.46L144.71 347.79L147.57 355.42C146.01 356.42 144.54 357.56 143.17 358.8L136.54 354.07L136.07 354.54L139.97 360V360ZM149.72 360C153.675 357.306 158.239 355.639 163 355.15V360H149.72ZM182.28 360H169V355.15C173.9 355.65 178.42 357.37 182.28 360ZM153.62 360H161V357.46C158.429 357.942 155.943 358.798 153.62 360V360ZM178.38 360C176.057 358.798 173.571 357.942 171 357.46V360H178.38ZM358.79 0H357.58L359.08 3.28C356.986 5.04538 355.045 6.98571 353.28 9.08L343.9 4.78L342.25 7.04L349.25 14.62C347.795 16.9514 346.544 19.4038 345.51 21.95L335.27 20.75L334.41 23.41L343.4 28.46C342.741 31.125 342.313 33.8417 342.12 36.58L332 38.6V41.4L342.12 43.42C342.32 46.2 342.75 48.92 343.4 51.54L334.4 56.59L335.27 59.25L345.51 58.05C346.55 60.59 347.8 63.05 349.25 65.38L342.25 72.96L343.9 75.22L353.28 70.92C355.045 73.0143 356.986 74.9546 359.08 76.72L354.78 86.1L357.04 87.75L360 85.02V87.68L357.16 90.3L352.31 86.78L356.67 77.28C355.281 76.0375 353.962 74.7188 352.72 73.33L343.22 77.69L339.7 72.84L346.78 65.16C345.841 63.5488 344.993 61.8862 344.24 60.18L333.86 61.39L332.01 55.69L341.12 50.57C340.727 48.7477 340.437 46.9048 340.25 45.05L330 43V37L340.25 34.95C340.44 33.08 340.73 31.23 341.12 29.43L332.01 24.31L333.86 18.61L344.24 19.82C344.99 18.11 345.84 16.45 346.78 14.84L339.7 7.16L343.22 2.31L352.72 6.67C353.962 5.2812 355.281 3.9625 356.67 2.72L355.42 0H358.79ZM360 52.7L353.52 56.44C351.191 51.2726 349.991 45.6679 350 40C349.992 34.3322 351.192 28.7278 353.52 23.56L360 27.3V52.7ZM360 13.54V18.06L357.53 16.63C358.3 15.56 359.13 14.53 360 13.54ZM360 66.46C359.13 65.47 358.3 64.44 357.53 63.36L360 61.94V66.46ZM360 50.39V29.61L354.5 26.43C351.151 35.1667 351.151 44.8333 354.5 53.57L360 50.39V50.39ZM62.42 360H64.58L67.69 353.22L62.84 349.7L55.16 356.78C53.5488 355.841 51.8862 354.993 50.18 354.24L51.39 343.86L45.69 342.01L40.57 351.12C38.7477 350.727 36.9048 350.437 35.05 350.25L33 340H27L24.95 350.25C23.1 350.44 21.25 350.73 19.43 351.12L14.31 342.01L8.60999 343.86L9.81999 354.24C8.10999 354.99 6.44999 355.84 4.83999 356.78L-9.76585e-06 352.32V357.49V354.99L4.61999 359.25C6.95137 357.795 9.40377 356.544 11.95 355.51L10.75 345.27L13.41 344.41L18.46 353.4C21.125 352.741 23.8417 352.313 26.58 352.12L28.6 342H31.4L33.42 352.12C36.2 352.32 38.92 352.75 41.54 353.4L46.59 344.4L49.25 345.27L48.05 355.51C50.59 356.55 53.05 357.8 55.38 359.25L62.96 352.25L65.22 353.9L62.42 360ZM360 244.51L358.56 244.31L357.76 245.69L359.76 248.23L360 248.4V244.51ZM360 258.96L356 258.56L352.84 259.22L352.56 260.8L355.31 262.5L360 263.7V258.96ZM360 272.29L355.3 273.49L352.56 275.2L352.84 276.78L356 277.44L360 277.04V272.29ZM360 287.6L359.76 287.77L357.76 290.31L358.56 291.69L360 291.49V287.6V287.6ZM360 293.36L357.43 293.73L355.43 290.27L358.76 286.04L360 285.19V293.36ZM360 279.05L356.35 279.41L351.08 278.31L350.38 274.37L354.96 271.53L360 270.23V279.05V279.05ZM360 265.77L354.96 264.47L350.38 261.63L351.08 257.7L356.35 256.6L360 256.95V265.77V265.77ZM360 250.81L358.76 249.96L355.43 245.73L357.43 242.27L360 242.64V250.81ZM360 352.31V360H355.42L352.31 353.22L357.16 349.7L360 352.32V352.31V352.31ZM360 354.98L357.04 352.25L354.78 353.9L357.58 360H360V354.98Z" fill="url(#paint0_linear)"/>
</g>
<defs>
<linearGradient id="paint0_linear" x1="372" y1="-8.25149e-06" x2="2.05609e-06" y2="365" gradientUnits="userSpaceOnUse">
<stop stop-color="#E73CAC"/>
<stop offset="0.855517" stop-color="#00F344" stop-opacity="0.6"/>
</linearGradient>
<clipPath id="clip0">
<rect width="360" height="360" fill="white"/>
</clipPath>
</defs>
</svg>
